<?xml version="1.0" encoding="utf-8"?>
<!-- Generator: Adobe Illustrator 15.1.0, SVG Export Plug-In . SVG Version: 6.00 Build 0)  -->
<!DOCTYPE svg PUBLIC "-//W3C//DTD SVG 1.1//EN" "http://www.w3.org/Graphics/SVG/1.1/DTD/svg11.dtd">
<svg version="1.1" id="Layer_1" xmlns="http://www.w3.org/2000/svg" xmlns:xlink="http://www.w3.org/1999/xlink" x="0px" y="0px"
	 width="263px" height="186px" viewBox="2.75 -74.75 263 186" enable-background="new 2.75 -74.75 263 186" xml:space="preserve">
<g>
	<g>
		
			<linearGradient id="SVGID_1_" gradientUnits="userSpaceOnUse" x1="2785.5322" y1="-2667.6143" x2="2933.2385" y2="-2454.2993" gradientTransform="matrix(0.1425 0 0 -0.1425 -244.9476 -300.7497)">
			<stop  offset="0.3725" style="stop-color:#BA4390"/>
			<stop  offset="1" style="stop-color:#566AAB"/>
		</linearGradient>
		<path fill="url(#SVGID_1_)" d="M136.657,63.054l0.472,0.613l0.803-0.8l-0.375-0.708L136.657,63.054z M134.772,57.448l0.47,0.752
			l0.944-0.752l-0.377-0.854L134.772,57.448z M139.628,62.536l0.705,0.661l0.805-1.133l-0.613-0.754L139.628,62.536z M138.972,56.22
			l-1.04,1.177l0.706,0.803l0.943-1.086L138.972,56.22z M126.525,50.328l0.095,0.66l0.754-0.284v-0.707L126.525,50.328z
			 M158.625,72.956L157.399,73l-0.144,1.51l1.229-0.144L158.625,72.956z M183.512,82.379l-0.092-0.658l-0.753,0.706l0.139,0.664
			L183.512,82.379z M180.683,84.266l-0.658,0.567l0.098,0.752l0.659-0.563L180.683,84.266z M180.683,87.05l-0.516,0.373l0.095,0.708
			l0.469-0.423L180.683,87.05z M171.919,79.598l0.233,0.284l-0.139,0.707l0.233-0.141l-0.048-0.989L171.919,79.598z M178.424,75.875
			l0.187,0.52l0.097,0.139l1.271-0.608l-0.238-0.664L178.424,75.875z M182.146,76.348l0.094-1.132l0.098,0.094l0.892-0.377
			l-0.187-0.471l-0.565,0.237l-0.14,0.517l-1.226-1.179l0.844,0.849l-0.329,0.144l0.188,0.471l0.331-0.142l-0.048,0.471
			l-1.176,0.658l0.189,0.565l0.986-0.565l0.472,0.519L182.146,76.348z M183.372,84.221l-0.613,0.564l0.14,0.707l0.569-0.613
			L183.372,84.221z M180.024,82.379l0.098,0.757l0.8-0.709l-0.096-0.753L180.024,82.379z M180.214,80.164l0.141,0.71l0.992-0.802
			l-0.096-0.71L180.214,80.164z M180.497,90.204l0.094,0.614l0.331-0.281l-0.048-0.614L180.497,90.204z M174.229,81.154l0.094,0.943
			l0.987-0.613l-0.045-0.896L174.229,81.154z M173.662,87.283l0.613-0.329v-0.848l-0.613,0.282V87.283L173.662,87.283z
			 M173.895,83.699l0.05,0.942l0.804-0.469v-0.896L173.895,83.699z M173.522,90.065l0.422-0.189V89.17l-0.422,0.14V90.065z
			 M172.483,77.244l-0.284,1.081l-0.658-1.224l0.235,0.472l-0.097,0.046l0.19,1.04l1.225-0.615l-0.139-0.991L172.483,77.244z
			 M177.195,82.005l0.098,0.845l0.893-0.658l-0.047-0.8L177.195,82.005z M177.524,89.827l-0.375,0.191l0.046,0.706l0.378-0.235
			L177.524,89.827z M177.573,86.812l-0.563,0.328l0.043,0.8l0.571-0.373L177.573,86.812z M177.81,83.982l-0.757,0.469l0.049,0.855
			l0.708-0.521V83.982z M175.123,76.771l0.234,0.848l1.322-0.658l-0.188-0.851L175.123,76.771z M174.651,78.848l0.144,0.894
			l1.176-0.663l-0.142-0.892L174.651,78.848z M188.514,85.395l-0.334,0.474l0.19,0.521l0.329-0.521L188.514,85.395z M187.942,79.078
			l-0.093-0.468l-0.094,0.094v0.045l0,0l-0.613,0.757l0.141,0.471L187.942,79.078z M187.613,83.652l0.143,0.521l0.424-0.665
			l-0.139-0.515L187.613,83.652z M187.942,81.205l-0.14-0.474l-0.566,0.804l0.144,0.515L187.942,81.205z M189.028,88.227
			l0.144,0.469l0.231-0.374l-0.139-0.424L189.028,88.227z M190.303,84.737l0.186,0.427l0.24-0.522l-0.144-0.421L190.303,84.737z
			 M185.964,79.741l-0.094-0.521l-0.802,0.852l0.144,0.517L185.964,79.741z M183.42,77.997l0.376,0.376l0.377-0.329l-0.142-0.567
			L183.42,77.997z M183.468,79.598l-0.756,0.665l0.142,0.611l0.896-0.802l-0.048-0.19L183.468,79.598z M183.184,78.187l-0.235,0.187
			l0.141,0.566l0.048-0.048L183.184,78.187z M183.654,89.923l0.142,0.566l0.283-0.332l-0.095-0.52L183.654,89.923z M185.826,83.75
			l-0.521,0.613l0.138,0.609l0.473-0.659L185.826,83.75z M183.563,86.858l-0.426,0.425l0.142,0.656l0.423-0.47L183.563,86.858z
			 M185.773,86.765l0.143,0.566l0.382-0.52l-0.143-0.566L185.773,86.765z M186.484,89.265l0.143,0.517l0.232-0.329l-0.144-0.473
			L186.484,89.265z M185.727,81.392l-0.658,0.757l0.144,0.562l0.614-0.753L185.727,81.392z M148.585,77.053l0.565,0.282l0.425-0.94
			l-0.52-0.332L148.585,77.053z M151.131,68.004l-1.083-0.33l-0.473,1.653l1.132,0.186L151.131,68.004z M154.099,78.892l0.71,0.096
			l0.375-1.083l-0.704-0.189L154.099,78.892z M156.976,67.154l1.366-1.366l0.426,1.411l0.28-0.045l-0.328-1.698l-1.51,0.284
			l0.237,1.037L156.976,67.154z M154.899,70.456l1.134-1.743l0.233,0.614l1.181-0.144v-0.099l-0.095,0.099l-0.377-1.887
			c0.049,0.283,0.049,0.283,0.049,0.283l-1.134,0.047l0.048,1.181l-0.52,0.848l-0.939-0.049l-0.191,1.65l0.85-0.049L154.899,70.456z
			 M147.973,69.513l-0.612,1.415l0.848,0.329l0.563-1.271L147.973,69.513z M150.564,75.075l0.801,0.186l0.472-1.175l-0.754-0.329
			L150.564,75.075z M171.35,80.964l0.283-1.318v0.096l-0.425,0.19l0.053,1.032l0.139-0.044L171.35,80.964z M143.021,66.59
			l-0.188-0.19l-0.755,1.181l0.661,0.52l0.423-0.709l0,0L143.021,66.59z M145.049,72.484l0.614,0.375l0.563-1.037l-0.563-0.472
			L145.049,72.484z M166.449,84.55l0.754-0.236l0.143-0.991l-0.757,0.142L166.449,84.55z M165.789,87.237l0.521-0.098l0.139-0.803
			l-0.519,0.052L165.789,87.237z M163.808,79.882l1.039-0.284l0.095-1.178l-1.083,0.19L163.808,79.882z M167.203,81.907l0.989-0.372
			l0.049-1.087l-0.992,0.283L167.203,81.907z M170.127,86.15l0.661-0.282l0.045-0.896l-0.706,0.235V86.15z M169.702,88.932
			l0.473-0.138l0.094-0.757l-0.471,0.094L169.702,88.932z M167.96,78.278l0.044,1.181l1.181-0.472l-0.05-1.131L167.96,78.278z
			 M162.816,82.379l0.806-0.143l0.186-1.082l-0.848,0.094L162.816,82.379z M156.976,75.358l-0.992-0.098l-0.331,1.416h0.989
			L156.976,75.358z M157.869,82.191l0.659,0.045l0.283-0.988l-0.657-0.094L157.869,82.191z M141.89,55.703l-0.989,1.46l0.944,0.705
			l0.895-1.363L141.89,55.703z M160.463,77.383l1.13-0.235l0.143-1.272l-1.134,0.144L160.463,77.383z M161.783,85.022l0.566-0.05
			l0.186-0.894l-0.563-0.049L161.783,85.022z M159.191,79.741l0.896-0.096l0.233-1.177h-0.892L159.191,79.741z M195.628,77.715
			l0.141,0.189l0.05-0.474l-0.144-0.187L195.628,77.715z M195.016,79.506l-0.141-0.236l-0.098,0.52l0.19,0.231L195.016,79.506z
			 M191.29,81.346l0.19,0.375l0.279-0.706l-0.141-0.38L191.29,81.346z M192.329,78.325l0.28-0.849l-0.139-0.28l-0.284,0.801
			L192.329,78.325z M192.281,82.807l-0.191,0.516l0.191,0.377l0.189-0.52L192.281,82.807z M194.875,83.75l0.093-0.381l-0.144-0.278
			l-0.092,0.373l0.045,0.097h0.098V83.75z M191.104,78.848l-0.286,0.611l0.144,0.33l0.376-0.802l0.566,0.375L191.104,78.848z
			 M190.961,78.749c-0.285-1.176-0.285-1.176-0.285-1.176l0.191,0.094l0.328-0.661l-0.092-0.281l-0.519,0.942l0.144,0.33
			l0.046-0.093L190.961,78.749z M192.66,76.771l-0.331-0.896h0.047l0.095-0.237l-0.095-0.233l-0.375,0.943l0.089,0.235l0.286-0.708
			L192.66,76.771z M192.891,80.12l0.191-0.661l-0.139-0.283l-0.238,0.659L192.891,80.12z M193.882,78.091l0.143,0.234l0.141-0.658
			l-0.141-0.236L193.882,78.091z M193.13,85.307l0.188,0.329l0.142-0.381l-0.187-0.33L193.13,85.307z M193.743,81.106l-0.14,0.521
			l0.187,0.28l0.143-0.516L193.743,81.106z M168.526,65.127l-0.285-0.143l0.285,0.241l0.233,0.092L168.526,65.127z M161.406,59.52
			v0.376l-1.649-1.319l0,0l1.459,2.025l0.567-0.61L161.406,59.52z M163.716,62.159l-0.285-0.942l1.319,0.848l-0.42-0.283l0,0
			l-1.604-1.837l0.046,0.28l-0.284-0.28l-0.329,0.189l0.896,1.034l-0.799,0.427l0.045,0.046L163.716,62.159z M163.574,61.781v0.097
			l-0.375-0.52L163.574,61.781z M164.281,64.423l-0.474-0.66l-1.319-0.426l-0.045-0.283h-0.047l0.33,1.271l0.375,0.571
			L164.281,64.423z M169.374,65.552l0.944,0.895l0.231,0.095L169.374,65.552z M172.766,68.899l-0.66-0.758l-0.706-0.042l0.895,0.845
			l-1.272,0.141l0.801,0.943l0.661-0.043l-0.521-0.802L172.766,68.899z M172.483,68.944L172.483,68.944L172.483,68.944
			L172.483,68.944z M159.568,60.321l1.225,1.932l0.942-0.613l-1.272-1.977L159.568,60.321z M196.288,68.193l0.092,0.048l-0.046-0.33
			l-0.095-0.048L196.288,68.193z M195.675,69.655l0.094,0.047l-0.049-0.519l0,0l-0.092,0.044L195.675,69.655z M193.834,70.975
			l-0.138,0.233l0,0l-0.236,0.473l-0.33,0.236l0.566-0.66l0.047-0.049l0,0l-0.613,0.709l-0.521,0.378l0.942-0.664
			c-0.047,0-0.047,0-0.047,0l0.329-0.608V70.975z M192.99,72.057l-0.047,0.047l-0.053,0.047L192.99,72.057L192.99,72.057z
			 M188.603,73.614l-1.033-0.096l0.892,0.096v0.046L188.603,73.614z M187.569,73.614v-0.049h-0.143l-0.047-0.047l0,0l-0.803,0.096
			l0.282,0.093L187.569,73.614z M179.931,71.631l-0.143-0.044l0.334,0.187L179.931,71.631z M192.418,72.529l0.1-0.045v-0.098
			L192.418,72.529z M192.471,72.623l-0.095-0.048l-0.375,0.381h-0.05l1.225-0.097l-0.471,0.045l0.285-0.42v-0.053l-0.1,0.053
			l-0.281,0.472L192.14,73L192.471,72.623L192.471,72.623z M195.297,74.132l0.142,0.14V73.66l-0.142-0.142V74.132z M196.522,73.143
			l0.141,0.095l-0.044-0.423l0,0h-0.569h0.473V73.143z M198.786,69.842L198.786,69.842L198.786,69.842L198.786,69.842
			L198.786,69.842z M195.58,71.398v0.519l0.095,0.096l-0.047-0.57L195.58,71.398z M191.667,73.284v0.092l0.334-0.33L191.951,73
			L191.667,73.284z M193.46,72.484l-0.047-0.143l-0.237,0.518l0.098,0.045L193.46,72.484z M194.824,72.057l-0.092-0.092v0.139
			l-0.898,0.143l1.134-0.189H194.824L194.824,72.057z M194.875,66.257l-0.143-0.659l-0.047,0.049v0.049L194.875,66.257
			L194.875,66.257z M194.732,67.343L194.732,67.343v-0.144V67.343L194.732,67.343z M194.732,68.569l-0.047,0.187v0.658h0.047V68.569
			z M194.732,67.25l-0.047,0.892l0.092-0.987l0,0l-0.045-0.708v0.052V67.25z M193.882,71.161l0.851-0.753l-0.186,0.19v-0.051
			l-0.051-0.048v0.188l-0.378,0.334l0.047-0.144l-0.047-0.048l-0.094,0.283L193.882,71.161z M193.882,71.631L193.882,71.631
			l0.993-0.517l-0.427,0.189l0.048-0.615l-0.094,0.051l-0.047,0.564L193.882,71.631l0.143-0.47l-0.048,0.047h-0.044l-0.189,0.614
			l0.047,0.049L193.882,71.631z M197.562,76.677l-0.142-0.144v0.285l0.142,0.143V76.677z M194.448,69.606l-0.046,0.096l-0.047,0.326
			l0,0L194.448,69.606z M194.547,69.042l-0.099,0.613l-0.33,0.801l0.33-0.897L194.547,69.042L194.547,69.042z M195.249,67.533
			l0.379-0.992l-0.189,0.472l-0.048-0.235h-0.046l0.046,0.334L195.249,67.533z M195.106,68.524l-0.045-0.661h-0.046l0.046,0.706
			L195.106,68.524L195.106,68.524z M195.488,67.297L195.488,67.297L195.488,67.297L195.488,67.297z M194.968,69.936v0.753
			l0.094,0.051v-0.754L194.968,69.936z M148.723,63.996l-0.94-0.423l-0.283,0.282l-0.422,1.37l1.177,0.326L148.723,63.996z
			 M196.097,81.674l0.051-0.381l-0.143-0.187l-0.047,0.33L196.097,81.674z M189.786,73.376L189.786,73.376l-1.134,0.189h0.142l0,0
			L189.786,73.376L189.786,73.376L189.786,73.376L189.786,73.376z M189.403,76.533l-0.328,0.428l0.097,0.33l0.471-0.614
			l-0.471-0.282L189.403,76.533z M191.057,74.699l0.563-0.756l-0.091-0.14l-0.52,0.658L191.057,74.699z M197.704,74.318l0.091,0.097
			V74.18l-0.091-0.094V74.318z M194.875,76.348l0.093-0.66l-0.144-0.188l-0.092,0.658L194.875,76.348z M189.831,76.019
			L189.831,76.019L189.831,76.019L189.831,76.019z M192.418,73.804l-0.658-0.097v-0.093l-0.093,0.093l-0.28-0.047l1.223,0.188
			L192.418,73.804z M185.306,74.132l0.049,0.048v0.235l1.081-0.329l-0.095-0.282L185.306,74.132z M181.155,72.575l0.471,0.329h0.851
			l-0.282-0.329H181.155z M186.012,73.376l0.188,0.047h-0.044l-1.512-0.233h0.097L186.012,73.376z M186.107,73.66l0.048,0.097h0.186
			L186.107,73.66z M146.277,51.833l0.752,0.191l0.283-0.85l-1.277-0.613l-0.658,1.886l0.569,0.189L146.277,51.833z M169.607,66.118
			l0.753,0.328l-1.226-0.8l0.802,1.131l-1.177-0.47l0.473,0.47l-0.33,0.05l0.376,0.706l-0.803-0.05l0.472,0.571l-0.802,0.187
			l0.189,0.422l-0.423,0.191l0.518,0.752l1.416-0.379l-0.711-1.086l1.226-0.138l-0.844-0.991l1.082,0.142L169.607,66.118z
			 M173.191,68.473l0.564,0.24l0.33,0.187l0,0l-0.991-0.516L173.191,68.473z M160.793,63.525l-0.139-0.848h1.647h-1.462
			l-0.611-1.181l-1.274,0.567l0.989,1.838L160.793,63.525z M130.53,52.024l0.944-0.377l-0.187-0.844l-1.039,0.469L130.53,52.024z
			 M160.135,72.104l-0.048-1.46l-1.415,0.188l0.096,1.556L160.135,72.104z M149.244,58.529l-1.366-0.423l-0.379,1.976l1.367,0.285
			L149.244,58.529z M153.627,72.623l0.048,0.048l0.19-0.8l-1.041-0.24l-0.373,1.512l0.847,0.095L153.627,72.623z M149.337,63.95
			l1.37,0.143l0.28-1.742l-0.518-0.143l-0.942,0.47L149.337,63.95z M133.735,51.931l0.473,0.896l1.034-0.665l-0.375-0.988
			L133.735,51.931z M185.354,78.659l0.943-0.854l-0.099-0.471l-0.941,0.898L185.354,78.659z M186.155,76.158l-0.473,0.375
			l0.091,0.383l0.662-0.521L186.155,76.158z M184.079,73.848l-0.095-0.044l0.095-0.428l0.189,0.097l0.847-0.05l-0.142-0.233
			l-0.658,0.048h0.047l-0.142,0.139l-0.328-0.139h-0.425l0.187,0.235h0.377l-0.047,0.188l-0.045-0.095l-1.463,0.33l0.19,0.376
			l1.412-0.328V73.848z M185.306,74.699l0.188,0.139l-0.05-0.189L185.306,74.699L185.306,74.699L185.306,74.699l-1.18,0.562
			l0.143,0.377l1.037-0.518V74.699z M183.61,77.102l1.174-0.754l-0.141-0.473l-1.176,0.755L183.61,77.102z M190.631,75.972
			l0.098,0.232l0.562-0.895l-0.187-0.094L190.631,75.972z M190.114,82.379l-0.143-0.422l-0.377,0.661l0.048,0.14l0.232,0.144
			L190.114,82.379z M173.662,74.933l-1.415,0.611l0.143,0.519l0.282,0.425l1.223-0.563L173.662,74.933z M170.599,83.508l0.895-0.417
			l0.048-0.993l-0.896,0.38L170.599,83.508z M169.278,73.896l0.329,1.086l1.414-0.566l-0.331-1.086L169.278,73.896z M181.533,73.473
			h0.048l-0.048-0.097v0.047l-1.366-1.036l0.845,0.659l-1.224,0.238l0.334,0.473l1.175-0.191l0.05-0.236L181.533,73.473z
			 M181.814,78.044l-0.137-0.661l-1.134,0.804l0.187,0.661L181.814,78.044z M179.035,74.415l0.283,0.566l1.412-0.472l-0.278-0.566
			L179.035,74.415z M179.318,77.667l-0.141-0.751l-0.471,0.28l-0.141,0.943L179.318,77.667z M193.318,76.348l0.095,0.282l0.19-0.801
			l-0.144-0.191L193.318,76.348z M176.537,70.028l-0.094-0.043l0.472,0.284L176.537,70.028z M171.822,71.069l0.755-0.8l-0.283,0.278
			l-0.331-0.563l-1.459,0.372l0.66,0.993l0.706-0.189L171.822,71.069z M165.46,70.456l-0.472-1.371l-1.509,0.474l0.52,1.416
			L165.46,70.456z M150.987,54.379l-0.518-0.28l0.047,0.377L150.987,54.379z M149.714,59h1.465l0.044-1.933l-1.458-0.139L149.714,59
			z M157.399,57.257l0.048,0.093l0.048-0.236L157.399,57.257z M156.363,57.777l0.563-0.52l-0.988-2.263l-0.944,0.848l0.758,1.792
			L156.363,57.777z M163.716,66.118l-0.847-1.604h-0.053l0.053,0.191l-0.612,0.048l-0.756,0.28l0.896,1.65L163.716,66.118z
			 M158.72,59.379l-0.142-0.097l0.094,0.143L158.72,59.379z M153.063,57.538l-0.283-2.073l-1.414,0.186l0.33,2.217L153.063,57.538z
			 M154.57,54.994l-0.144-0.095l0.053,0.19L154.57,54.994z M154.427,55.842l-0.328-1.177l-0.895-0.705l-0.566,0.279l0.614,2.311
			L154.427,55.842z M194.686,72.765l0.092,0.095l0.047-0.473h-0.092L194.686,72.765z M199.729,67.483L199.729,67.483L199.729,67.483
			L199.729,67.483L199.729,67.483z M196.992,79.362l0.047-0.329l-0.137-0.142l-0.05,0.329L196.992,79.362z M196.239,75.029v0.423
			l0.141,0.139V75.12L196.239,75.029z M188.745,75.591l-0.046-0.281h-0.047l-0.944,0.849l0.095,0.329L188.745,75.591z
			 M191.387,73.046l-0.283,0.144l-0.047,0.048L191.48,73L191.387,73.046z M194.263,73.848l-0.145,0.754l-0.284-0.092l0.429,0.092
			l0.093-0.658L194.263,73.848z M193.224,73.094h-0.094l-0.098,0.282l0.05,0.143L193.224,73.094z M192.281,73.329l0.048,0.144
			l0.233-0.33h-0.092L192.281,73.329z M198.173,66.969L198.173,66.969L198.173,66.969L198.173,66.969L198.173,66.969z
			 M191.619,72.956l0.521-0.333l0.093-0.094l-0.752,0.427l-0.992,0.281l0,0L191.619,72.956z M196.522,70.357l0.049,0.382
			l0.092,0.045l-0.044-0.376L196.522,70.357z M194.777,73.284c-0.896-0.047-0.896-0.047-0.896-0.047l0.143-0.753l-0.092-0.098
			l-0.189,0.803h-0.14L194.777,73.284z M193.318,72.013v0.044l0.187-0.328l-0.045,0.045L193.318,72.013z M154.57,58.435L154.618,59
			l0.19,0.664l0.282-0.144l-0.144-0.048l0.236-2.075l0.377,0.141l-0.189-0.563l-1.319,0.517l0.33,0.989L154.57,58.435z
			 M152.31,60.602l-0.85-0.048l0.092,1.04l-0.23,0.142v0.848l1.458-0.047l-0.048-1.648l-0.52,0.048L152.31,60.602z M150.048,53.908
			l-1.04-0.517l-0.285-0.044l-0.09,0.47l-0.141,1.648l1.413,0.097L150.048,53.908z M153.154,66.118l-1.317-0.191l-0.233,1.794
			l1.319,0.049L153.154,66.118z M153.252,61.121l1.458-0.283l-0.044-0.188l-1.462,0.188L153.252,61.121z M148.02,54.76l-0.754-0.285
			l-0.614-0.097l-0.473,1.841l1.371,0.374L148.02,54.76z M146.227,65.552l-0.85-0.567l-0.703,1.514l0.943,0.471L146.227,65.552z
			 M146.889,59.849l-1.134-0.614l-0.658,1.79l1.181,0.472L146.889,59.849z M154.947,64.184h-1.51l0.1,1.887l1.457-0.144
			L154.947,64.184z M142.459,61.825l0.942,0.568l0.753-1.368l-0.896-0.704L142.459,61.825z M159.098,65.598l0.188,1.132
			c-0.376-2.167-0.376-2.167-0.376-2.167l0.988-0.47l-0.235-0.661l-1.463,0.424l0.71,1.791L159.098,65.598z M162.257,66.399
			l-1.514,0.428l0.616,1.601l1.457-0.473L162.257,66.399z M161.314,68.428l-1.514,0.328l0.334,1.602l1.458-0.372L161.314,68.428z
			 M156.694,64.041l-0.381-1.833l-1.505,0.231l0.424,1.936L156.694,64.041z M157.353,60.272l-1.414,0.472l0.703,1.98l1.37-0.517
			L157.353,60.272z M158.342,59.143l-0.942-0.52l-0.094,0.048v1.321l0.52,1.034l1.084-0.704L158.342,59.143z M141.986,52.305
			l-0.849-0.988l-1.134,1.366l0.943,0.849L141.986,52.305z M144.435,52.59l0.426-0.706l-1.087-0.851l-0.94,1.65l0.097,0.049
			L144.435,52.59z M145.565,55.794l-1.131-0.752l-0.801,1.743l1.179,0.565L145.565,55.794z M164.092,71.161l-1.461,0.381
			l0.285,1.414l1.458-0.472L164.092,71.161z M138.78,52.404l-0.612-1.042l-1.179,1.042l0.71,0.943L138.78,52.404z M178.566,79.033
			l0.044,0.045L178.566,79.033L178.566,79.033z M186.766,75.688l-0.281,0.188l0.046,0.473l0.329-0.237L186.766,75.688z
			 M179.225,71.587l0.563,0.142l-0.47-0.237l0.378,0.051h-0.142l-1.087-0.334l0.473,0.283l0.237,0.051l-1.133-0.051l-0.235,0.051
			l0.426,0.375l1.505,0.096L179.225,71.587z M178.468,72.057l-0.658,0.094l0.515,0.566l-0.042,0.048l0.613-0.094L178.468,72.057z
			 M161.735,75.12l1.32-0.329l-0.048-1.318l-1.364,0.284L161.735,75.12z M178.045,77.573l-0.138,0.094l0.186,0.753l0.375-0.233
			L178.045,77.573z M188.132,76.771l-0.563,0.611l0.044,0.048l0.047,0.375l0.568-0.609L188.132,76.771z M193.604,75.029l-0.38-0.614
			h0.05l0.089-0.329l-0.089-0.143l-0.283,0.942l0.092,0.189l0.191-0.565L193.604,75.029z M189.688,78.187l-0.094-0.381l-0.614,0.898
			l0.142,0.374L189.688,78.187z M192.418,74.132l-0.137-0.046l-0.378,0.705l0.098,0.19L192.418,74.132z M197.75,71.773
			L197.75,71.773l-0.046-0.045l0,0L197.75,71.773z M189.786,80.212l-0.144-0.423l-0.471,0.8l0.142,0.426L189.786,80.212z
			 M190.303,74.51l-0.852,0.895l0.052,0.233l0.844-0.894L190.303,74.51z M167.861,71.398l-1.503,0.519l0.42,1.272l1.463-0.519
			L167.861,71.398z M167.017,73.473l-1.416,0.471l0.236,1.272l1.366-0.517L167.017,73.473z M168.526,69.513l-1.465,0.473
			l0.095,0.233l-0.047,0.051l0.521,0.938l1.457-0.469L168.526,69.513z M166.073,77.053l-0.049-1.224l-1.274,0.329l0.052,1.272
			L166.073,77.053z M170.175,76.583l-0.143-1.083l-1.367,0.519l0.189,1.129L170.175,76.583z M176.68,74.132l0.47-0.143l0.375-0.896
			l0.521,0.613l0.094-0.047l-0.231-0.471l-0.098,0.095L177.573,73l-1.272,0.376L176.68,74.132z M177.435,72.859L177.435,72.859
			l-0.142-0.188L177.435,72.859z M176.067,70.172l0.612,0.236l-0.898-0.566l-0.703-0.235l0.703,0.521l0.096,0.045l-1.32-0.094
			l0.663,0.661l1.224,0.14l-0.334-0.331l0.57-0.092l-0.379,0.044L176.067,70.172z M177.382,75.12l-0.28-0.802l-1.411,0.614
			l0.33,0.755L177.382,75.12z M171.447,71.491l-1.511,0.521l0.521,1.033l1.462-0.517L171.447,71.491z M175.501,70.688l-1.51,0.19
			l0.614,0.752l1.462-0.14L175.501,70.688z M178.324,78.749l-0.042,0.427l-0.803,0.516l0.145,0.802l0.562-0.373l-0.047,0.283
			L178.324,78.749z M174.935,71.681l-1.511,0.423l0.521,0.853l1.464-0.381L174.935,71.681z M174.322,73.143l-1.274,0.472
			l0.144,0.233l-0.144,0.284l0.188,0.47l1.462-0.564L174.322,73.143z M157.162,55.651l-1.51-1.504l1.181,2.358L157.162,55.651z
			 M159.048,57.823l0.191-0.989l-0.52-0.757l-0.895-0.988l-0.33,0.329v0.046L159.048,57.823z M158.058,56.362l-0.519,0.658
			l1.37,0.803L158.058,56.362z M154.947,53.105l-0.521-1.458l-0.608,0.849l0.892,0.752L154.947,53.105z M151.65,52.074l-0.613,0.088
			l0.613,0.333V52.074z M169.232,65.412l-0.098-0.047l0.191,0.139L169.232,65.412z M166.358,68.569l-0.613-1.227l1.271-0.374
			l-0.757-1.087l1.086-0.235l-0.849-1.037l0.896,0.045l-0.989-1.081l0.753,0.377l-1.132-1.083l0.564,0.706l-0.752-0.614l0.094,0.095
			l-0.471,0.049l0.187,0.521l-1.647-0.992l0.189,0.566l0.328-0.144l-0.143-0.187l1.086,0.658l0.66,0.658l-1.036,0.284l0.94,1.13
			l-1.274,0.428l0.851,1.225l-1.412,0.471l0.753,1.415L166.358,68.569z M171.87,67.391l0.424,0.33l-0.565-0.237l0.708,0.521
			l0.426,0.096L171.87,67.391L171.87,67.391z M172.905,68.004l-0.092-0.049l0.895,0.661L172.905,68.004z M165.415,62.351
			l0.279,0.232l-0.234-0.189L165.415,62.351z M155.983,52.919l-0.045,0.186l0.328,0.331L155.983,52.919z"/>
		
			<linearGradient id="SVGID_2_" gradientUnits="userSpaceOnUse" x1="2233.248" y1="-1679.8174" x2="3091.9949" y2="-2703.2319" gradientTransform="matrix(0.1425 0 0 -0.1425 -244.9476 -300.7497)">
			<stop  offset="0.2941" style="stop-color:#BA4390"/>
			<stop  offset="0.5074" style="stop-color:#32B2C3"/>
			<stop  offset="0.674" style="stop-color:#068FB8"/>
			<stop  offset="1" style="stop-color:#566AAB"/>
		</linearGradient>
		<path fill="url(#SVGID_2_)" d="M186.671,33.452l0.518,0.988l1.557,0.052L188.37,33.5L186.671,33.452z M188.461,39.012l1.37,0.191
			l-0.38-0.943l-1.463-0.234L188.461,39.012z M186.057,36.655l1.557,0.19l-0.471-1.038l-1.649-0.186L186.057,36.655z
			 M182.524,44.858l-0.569-0.329l0.614,0.517l0.614,0.332L182.524,44.858z M183.42,34.44l1.745,0.191l-0.521-1.131l-1.885-0.191
			L183.42,34.44z M182.569,36.655l1.651,0.285l-0.566-1.086l-1.743-0.28L182.569,36.655z M183.749,30.861l0.613,1.129l1.793,0.046
			l-0.473-1.129L183.749,30.861z M191.574,50.94l-0.427-0.895l-0.61-0.377l0.424,0.893L191.574,50.94z M190.395,51.271l-0.472-0.331
			l0.472,0.849l0.473,0.328L190.395,51.271z M192.09,54.334l-0.372-0.848l-0.381-0.331l0.381,0.85L192.09,54.334z M189.972,52.353
			l-0.377-0.279l0.47,0.752l0.38,0.278L189.972,52.353z M189.313,36.138l0.423,0.899l1.367,0.044l-0.329-0.893L189.313,36.138z
			 M190.203,40.571l0.428,0.897l1.179,0.186l-0.329-0.849L190.203,40.571z M190.867,44.626l0.423,0.891l0.991,0.333l-0.378-0.849
			L190.867,44.626z M191.387,48.395l0.373,0.894l0.758,0.329l-0.378-0.892L191.387,48.395z M190.256,53.908l-0.381-0.612
			l-0.232-0.234l0.375,0.614L190.256,53.908z M173.379,37.74l-1.509-0.28l0.707,0.566l1.557,0.284L173.379,37.74z M177.195,36.326
			l-1.787-0.329l0.752,0.943l1.747,0.284L177.195,36.326z M178.566,41.797l-0.712-0.472l-0.892-0.329l0.661,0.472L178.566,41.797z
			 M174.98,37.598l0.757,0.756l1.556,0.328l-0.756-0.751L174.98,37.598z M173.424,35.667l1.886,0.236l-0.658-0.992l-1.932-0.233
			L173.424,35.667z M178.94,39.484l-1.367-0.374l0.751,0.752l1.372,0.378L178.94,39.484z M173.004,37.037l1.744,0.232l-0.711-0.752
			l-1.743-0.281L173.004,37.037z M177.195,40.24l0.757,0.614l1.178,0.375l-0.806-0.615L177.195,40.24z M169.607,35.292l0.613,0.752
			l1.885,0.143l-0.612-0.757L169.607,35.292z M199.635,50.659v-0.712l-0.849-0.186l0.048,0.708L199.635,50.659z M172.152,38.589
			l1.323,0.334l-0.756-0.427l-1.272-0.329L172.152,38.589z M170.55,28.455l0.614,1.886l2.26,0.281l-0.42-1.791L170.55,28.455z
			 M175.924,39.062l-1.318-0.33l0.752,0.566l1.366,0.329L175.924,39.062z M174.98,39.911l1.129,0.329l-0.752-0.472l-1.082-0.329
			L174.98,39.911z M192.418,56.737l-0.231-0.232l0.331,0.8l0.234,0.233L192.418,56.737z M190.303,54.522l-0.285-0.474l-0.095-0.14
			l0.28,0.471L190.303,54.522z M191.903,51.931l0.378,0.896l0.52,0.329l-0.383-0.895L191.903,51.931z M192.563,47.027l0.328,0.896
			l0.853,0.329l-0.283-0.849L192.563,47.027z M192.847,50.659l0.329,0.894l0.658,0.331l-0.282-0.896L192.847,50.659z M191.29,54.569
			l-0.281-0.28l0.378,0.8l0.28,0.232L191.29,54.569z M186.53,48.917l-0.375-0.287l0.472,0.564l0.372,0.283L186.53,48.917z
			 M193.933,58.72l-0.236-0.943l-0.283-0.239l0.235,0.944L193.933,58.72z M185.398,45.001l-0.848-0.375l0.661,0.752l0.845,0.377
			L185.398,45.001z M193.13,56.549l-0.329-0.898l-0.33-0.28l0.33,0.895L193.13,56.549z M169.418,35.338l-0.471-0.803l-1.98-0.043
			l0.473,0.8L169.418,35.338z M193.13,58.72l0.283,0.846l0.19,0.188l-0.285-0.848L193.13,58.72z M193.13,54.146l0.283,0.943
			l0.421,0.329l-0.282-0.943L193.13,54.146z M180.262,43.02l-0.707-0.33l0.659,0.52l0.754,0.329L180.262,43.02z M191.195,55.513
			l-0.187-0.191l0.328,0.663l0.191,0.186L191.195,55.513z M187.236,47.027l-0.706-0.376l0.612,0.801l0.707,0.378L187.236,47.027z
			 M186.766,48.113l-0.52-0.331l0.567,0.706l0.517,0.33L186.766,48.113z M187.988,45.755l-0.891-0.377l0.563,0.85l0.854,0.375
			L187.988,45.755z M188.931,49.147l-0.608-0.374l0.52,0.8l0.609,0.329L188.931,49.147z M184.269,40.525l1.318,0.329l-0.613-0.943
			l-1.363-0.378L184.269,40.525z M189.643,47.875l-0.757-0.375l0.518,0.896l0.755,0.378L189.643,47.875z M188.041,49.902
			l0.518,0.709l0.422,0.329l-0.52-0.709L188.041,49.902z M191.104,47.356l-0.428-0.897l-0.89-0.375l0.47,0.895L191.104,47.356z
			 M188.931,42.268l0.473,0.942l1.134,0.329l-0.423-0.896L188.931,42.268z M184.269,45.707l0.614,0.662l0.658,0.329l-0.614-0.662
			L184.269,45.707z M186.107,43.635l-1.039-0.38l0.658,0.851l1.039,0.377L186.107,43.635z M186.813,39.958l0.566,0.942l1.272,0.283
			l-0.473-0.943L186.813,39.958z M186.436,42.597l1.178,0.375l-0.563-0.896l-1.224-0.377L186.436,42.597z M184.455,37.696
			l0.613,1.036l1.462,0.28l-0.519-0.986L184.455,37.696z M187.899,43.869l0.517,0.896l0.987,0.376l-0.518-0.896L187.899,43.869z
			 M179.318,36.797l1.693,0.329l-0.657-1.032l-1.788-0.329L179.318,36.797z M194.875,49.716l-0.803-0.331l0.235,0.895l0.754,0.331
			L194.875,49.716z M194.824,58.529l0.097,0.99l0.284,0.282l-0.099-0.991L194.824,58.529z M194.308,53.862l0.567,0.329l-0.189-0.896
			l-0.567-0.33L194.308,53.862z M194.263,57.305l0.372,0.282l-0.187-0.943l-0.376-0.281L194.263,57.305z M194.072,71.729
			l1.034-0.521l-0.186-0.094l-0.988,0.473L194.072,71.729z M193.977,71.161l0.848-0.753h-0.139l-0.852,0.753H193.977z
			 M196.192,66.498l0.188,0.14l0.473-0.897l-0.189-0.143L196.192,66.498z M197.039,55.322l-0.047-0.846l-0.612-0.329l0.051,0.896
			L197.039,55.322z M195.72,66.638l-0.092-0.097l-0.379,0.992l0.096,0.094L195.72,66.638z M195.769,64.706l-0.235,0.989l0.142,0.143
			l0.236-0.992L195.769,64.706z M195.628,68.993l-0.707,0.804l0.141,0.092l0.707-0.804L195.628,68.993z M197.562,65.695l0.328,0.231
			l0.52-0.752l-0.331-0.235L197.562,65.695z M199.352,56.691l0.096-0.754l-0.661-0.286l-0.094,0.755L199.352,56.691z M199.92,53.105
			l0.704,0.242l0.048-0.663l-0.752-0.237V53.105z M195.297,68.333l-0.092-0.048l-0.473,0.942l0.092,0.048L195.297,68.333z
			 M197.936,66.921l-0.279-0.191l-0.664,0.711l0.285,0.187L197.936,66.921z M199.067,68.384l-0.42-0.284l-0.758,0.47l0.377,0.285
			L199.067,68.384z M197.23,68.524l-0.283-0.141l-0.755,0.658l0.238,0.142L197.23,68.524z M196.431,67.483l-0.191-0.093
			l-0.564,0.851l0.188,0.143L196.431,67.483z M199.776,66.685l-0.425-0.285l-0.659,0.569l0.425,0.281L199.776,66.685z
			 M178.797,38.496l1.558,0.33l-0.755-0.895l-1.603-0.333L178.797,38.496z M179.931,34.724l1.839,0.285l-0.614-1.18l-1.931-0.279
			L179.931,34.724z M175.924,34.02l0.705,1.175l1.887,0.286l-0.661-1.132L175.924,34.02z M166.967,32.086h-2.12l0.237,1.365
			l2.072-0.045L166.967,32.086z M173.476,29.918l0.658,1.602l2.167,0.284l-0.52-1.555L173.476,29.918z M170.646,34.631l2.026,0.19
			l-0.566-1.085l-2.073-0.187L170.646,34.631z M170.55,25.158l0.658,2.216l2.406,0.329l-0.473-2.17L170.55,25.158z M168.052,31.896
			l2.169,0.191l-0.33-1.652l-2.26-0.186L168.052,31.896z M170.975,32.695l2.12,0.191l-0.473-1.414l-2.215-0.236L170.975,32.695z
			 M181.203,41.183l-1.179-0.378l0.757,0.754l1.174,0.38L181.203,41.183z M182.854,44.106l-0.8-0.377l0.658,0.658l0.8,0.377
			L182.854,44.106z M180.683,42.268l-0.942-0.377l0.712,0.611l0.987,0.38L180.683,42.268z M182.759,37.931l-1.556-0.333l0.708,0.991
			l1.509,0.334L182.759,37.931z M179.883,31.048l0.708,1.318l1.934,0.19l-0.569-1.272L179.883,31.048z M183.372,43.02l-0.989-0.377
			l0.706,0.755l0.99,0.376L183.372,43.02z M180.544,39.341l0.753,0.899l1.37,0.375l-0.712-0.846L180.544,39.341z M196.478,64.654
			l0.236,0.191l0.325-0.943l-0.187-0.14h-0.047L196.478,64.654z M199.209,65.127l0.426,0.285l0.516-0.614l-0.469-0.283
			L199.209,65.127z M195.106,63.996l-0.091-0.141l-0.048,0.99l0.094,0.139L195.106,63.996z M194.968,66.969l0.139-1.042
			l-0.045-0.089l-0.141,1.032L194.968,66.969z M196.239,57.728l-0.421-0.28l0.045,0.938l0.376,0.285V57.728z M170.127,27.56
			l-2.451-0.377l0.424,2.216l2.261,0.281L170.127,27.56z M184.079,41.654l-1.226-0.376l0.709,0.849l1.178,0.375L184.079,41.654z
			 M167.817,33.878l2.073,0.093l-0.374-1.179l-2.124-0.097L167.817,33.878z M188.745,51.693l-0.423-0.613l-0.05-0.047v0.141
			l0.188,0.236L188.745,51.693z M185.165,47.403l-0.566-0.562l-0.473-0.284l0.518,0.566L185.165,47.403z M175.877,34.065
			l-0.612-1.273l-2.123-0.284l0.664,1.272L175.877,34.065z M128.031-3.646l5.704,6.553l2.878-1.793l-5.139-6.599L128.031-3.646z
			 M138.215,1.351l4.288,6.08l2.971-0.943l-3.726-6.032L138.215,1.351z M134.584,3.473l4.858,6.033l2.402-1.697l-4.432-6.128
			L134.584,3.473z M143.162,7.949l3.537,5.514l2.498-0.988l-3.109-5.469L143.162,7.949z M148.585,30.953l-2.83-3.627v2.968
			l2.83,3.344V30.953z M146.135,23.695l-3.587-4.525L141.845,22l3.676,4.24L146.135,23.695z M145.377,26.9l-3.719-4.148v3.35
			l3.719,3.769V26.9z M137.271,12.476l1.7-2.452l-5.001-6.033l-2.026,2.687L137.271,12.476z M147.266,13.937l2.782,4.904
			l2.117-0.991l-2.451-4.904L147.266,13.937z M152.451,29.634l-1.744-3.585l-1.041,1.886l1.841,3.487L152.451,29.634z
			 M147.55,21.151l-3.302-4.811l-1.366,2.263l3.487,4.62L147.55,21.151z M152.31,37.037l0.47-2.028l-1.176-2.874l-0.473,2.117
			L152.31,37.037z M155.232,31.191l-0.896-3.065l-1.32,1.365l0.992,3.065L155.232,31.191z M154.853,22.894l-1.837,0.992l1.464,3.674
			l1.647-0.943L154.853,22.894z M150.378,12.759l2.354,4.853l2.501-0.47l-1.98-4.808L150.378,12.759z M153.768,32.886l-1.083-3.016
			l-0.941,1.791l1.131,2.919L153.768,32.886z M150.423,25.674l-2.498-4.194l-1.179,2.024l2.638,4.056L150.423,25.674z
			 M155.797,34.111l-1.131,1.32l-0.142,1.979l1.128-1.316L155.797,34.111z M157.495,32.695l-0.239-2.495l-1.504,0.943l0.281,2.494
			L157.495,32.695z M155.704,33.972l-0.38-2.499l-1.226,1.32l0.426,2.5L155.704,33.972z M154.71,27.844l0.851,3.109l1.554-0.943
			L156.41,26.9L154.71,27.844z M149.197,28.078l-2.689-3.96l-0.611,2.545l2.781,3.726L149.197,28.078z M157.495,22.187l-2.171,0.516
			l1.179,3.678l1.937-0.564L157.495,22.187z M161.735,28.784l-0.329-2.967l-2.167,0.187l0.473,3.018L161.735,28.784z
			 M161.171,25.533L160.463,22l-2.405,0.088l0.896,3.585L161.171,25.533z M154.382,35.808l-0.801,1.652l-0.044,1.979l0.799-1.65
			L154.382,35.808z M152.212,37.553l-1.225-2.688l-0.048,2.451l1.226,2.545L152.212,37.553z M154.336,35.622l-0.471-2.5l-0.85,1.699
			l0.521,2.448L154.336,35.622z M150.8,34.492l-1.979-3.16v2.688l1.979,2.92V34.492z M151.365,31.849l-1.885-3.394l-0.52,2.309
			l1.979,3.255L151.365,31.849z M153.394,37.696l-0.52-2.404l-0.471,2.024l0.564,2.311L153.394,37.696z M152.594,42.926
			l-0.382-2.498l-1.225-2.449l0.425,2.687L152.594,42.926z M152.874,40.098l-0.564-2.261l-0.045,2.309l0.56,2.167L152.874,40.098z
			 M83.911-15.572l3.727,3.254l3.77-0.897l-3.252-2.922L83.911-15.572z M202.088,51.79v0.614l0.705,0.14l0.046-0.568L202.088,51.79z
			 M102.911-16.844l-6.554-1.792l1.318,4.714l6.364,1.224L102.911-16.844z M99.938-9.821l-5.797-0.376l3.205,4.29l5.327-0.141
			L99.938-9.821z M166.403,33.972l-2.029,0.094l0.284,0.846l2.029-0.09L166.403,33.972z M137.932,12.946l4.385,5.185l1.415-2.261
			l-4.15-5.421L137.932,12.946z M140.667,44.529l-1.887,1.98l3.536,1.604l1.033-1.557l3.257,2.5l1.413-1.325l2.216,2.313l1.555-0.66
			l1.462,1.746h1.509l-2.31-2.879l-1.842-0.377l0.664,0.8l-1.937-2.072l-1.886,0.33l-2.024-1.648l-1.936,1.175l0.282-0.423
			L140.667,44.529z M165.931,62.77l-1.601-1.319l0.42,0.614l-1.319-0.848l0.285,0.942l-1.509-0.565l0.328,1.695l1.887,0.613
			l-0.423-1.366l1.647,0.989l-0.47-1.132l1.368,1.132L165.931,62.77z M97.63-29.807l-5.705-1.604l0.143,4.196l5.751,1.132
			L97.63-29.807z M161.927,31.473l0.045-2.404l-1.98,0.236l0.049,2.451L161.927,31.473z M91.455-24.433l-5.233-0.425l2.264,4.053
			h4.903L91.455-24.433z M103.334,2.339l-3.725-2.922l-4.667,0.85l4.338,3.251L103.334,2.339z M152.731,29.208l1.32-1.364
			l-1.506-3.678l-1.463,1.415L152.731,29.208z M170.833,36.655l-1.698-0.188l0.663,0.521l1.743,0.188L170.833,36.655z
			 M160.135,21.619l-1.087-4.052l-2.685-0.048l1.412,4.197L160.135,21.619z M144.674,15.87l3.159,4.857l1.694-1.511l-2.921-4.903
			L144.674,15.87z M140.101,9.976l4.004,5.469l1.983-1.602l-3.629-5.515L140.101,9.976z M153.204,18.085l1.743,4.287l2.167-0.515
			l-1.462-4.198L153.204,18.085z M148.303,21.058l2.404,4.239l1.505-1.463l-2.164-4.291L148.303,21.058z M152.638,18.274
			l-2.121,0.991l2.077,4.287l1.886-0.991L152.638,18.274z M164.847,26.192l0.187,2.687l2.267,0.329l-0.051-2.591L164.847,26.192z
			 M165.177,31.473l2.123,0.093l-0.097-1.931l-2.262-0.143L165.177,31.473z M169.232,37.507l1.509,0.282l-0.709-0.33l-1.459-0.236
			L169.232,37.507z M130.671,6.866l-6.457-6.27l-1.271,4.102l6.692,5.796L130.671,6.866z M142.033,18.745l-4.524-5.138l-0.852,3.207
			l4.668,4.806L142.033,18.745z M122.66,10.778l6.738,4.855l-0.095-4.385l-6.74-5.514L122.66,10.778z M136.471,21.386l4.716,4.243
			v-3.35l-4.716-4.667V21.386z M162.679,59.663l-1.886-1.84l-0.092,0.376l-1.323-1.086l-0.187,0.805l-1.652-0.991l-0.187,1.082
			l-2.12-0.612l-0.238,2.075l2.405,0.611v-1.506l2.263,1.272v-1.367l1.792,1.414v-0.989l1.415,1.318L162.679,59.663z
			 M132.228-14.063l4.715,6.694l4.76,0.281l-3.864-6.364L132.228-14.063z M126.478-20.853l5.184,6.035l5.234,0.093l-4.291-5.748
			L126.478-20.853z M139.158-13.356l3.771,6.269l5.09,1.134l-2.923-5.846L139.158-13.356z M143.588-6.426l3.348,6.081l4.287,0.753
			l-2.638-5.705L143.588-6.426z M119.028-20.568l6.177,6.364l4.666-0.942l-5.327-6.223L119.028-20.568z M112.901-18.164l7.071,5.892
			l3.49-2.309l-6.365-5.987L112.901-18.164z M114.836-1.431l7.399,4.997l0.755-4.053l-7.213-5.562L114.836-1.431z M123.886-0.724
			l2.45-2.97l-6.693-6.975l-2.971,3.251L123.886-0.724z M163.339,18.131l0.66,3.819l2.641,0.659l-0.38-3.628L163.339,18.131z
			 M130.438,20.915l-1.461-4.575l-6.413-3.487l1.791,5.326L130.438,20.915z M162.016,13.371l0.992,4.289l2.97,0.896l-0.613-4.054
			L162.016,13.371z M164.612,29.162l-2.124-0.093l-0.045,2.354l2.029,0.05L164.612,29.162z M152.874,1.067l2.217,5.375l3.818,0.988
			l-1.653-5.044L152.874,1.067z M147.594,0.267l2.924,5.704l3.677,0.424l-2.313-5.466L147.594,0.267z M160.32,8.233l1.367,4.62
			l3.346,1.084l-0.892-4.335L160.32,8.233z M155.61,7.007l1.837,4.996l3.296,0.707l-1.365-4.76L155.61,7.007z M164.422,31.706
			l-2.025,0.143v1.603l1.978-0.188L164.422,31.706z M162.443,36.094l-0.284-0.143l-1.839,0.187l0.191,0.143L162.443,36.094z
			 M159.378,34.158l-1.649,0.707l-0.423,1.272l1.648-0.755L159.378,34.158z M162.066,31.661l-1.885,0.282l-0.284,1.885l1.838-0.329
			L162.066,31.661z M156.642,36.609l-1.458,1.036l-0.613,0.709l1.463-1.085L156.642,36.609z M136.754,26.147l-0.897-4.337
			l-5.796-4.526l1.084,4.996L136.754,26.147z M165.694,35.338l-1.887,0.093l0.334,0.473l1.979-0.096L165.694,35.338z M164.75,36.138
			h-1.742l0.378,0.236h1.839L164.75,36.138z M158.625,35.714l-1.649,0.752l-0.379,0.614l1.699-0.8L158.625,35.714z M147.36,38.212
			l-1.182-3.534l-3.581-3.065l1.414,4.008L147.36,38.212z M155.891,51.131l-1.082-1.937l-1.041-2.354l-0.988-1.933l1.319,2.967
			l0.472,0.899l-0.329-0.57l-1.462-1.744l1.887,3.257L155.891,51.131z M138.591,31.377l-1.837-4.385l-5.327-2.968l2.215,5.092
			L138.591,31.377z M143.54,35.151l-1.415-4.058l-4.568-3.39l1.695,4.663L143.54,35.151z M154.288,49.243l-1.885-3.254l-2.168-1.835
			l2.168,3.629L154.288,49.243z M152.026,45.141l-1.51-3.25l-2.452-2.309l1.7,3.629L152.026,45.141z M150.235,41.086l-1.038-3.155
			l-2.689-2.779l1.182,3.531L150.235,41.086z M160.793,35.245l-1.839,0.52l-0.143,0.516l1.89-0.516L160.793,35.245z M125.911-13.404
			l5.658,6.93l4.24-0.707l-4.854-6.742L125.911-13.404z M132.417-5.815l4.996,6.553l3.534-0.847l-4.334-6.459L132.417-5.815z
			 M141.939,30.2l-0.753-3.77l-4.764-4.101l0.896,4.287L141.939,30.2z M137.699-6.708l4.19,6.41h4.007l-3.487-6.128L137.699-6.708z
			 M142.598,0.313l3.581,5.987l3.396-0.186l-3.02-5.801H142.598z M130.154,16.247l5.749,4.667v-3.82l-5.749-5.185V16.247z
			 M136.896,13.089l-5.469-5.704l-1.037,3.582l5.656,5.326L136.896,13.089z M131.097,6.159l2.029-2.733l-5.847-6.505l-2.451,2.97
			L131.097,6.159z M120.631-11.234l6.509,6.975l3.487-1.838l-5.799-6.975L120.631-11.234z M161.123,22l0.66,3.487l2.309,0.186
			l-0.423-3.344L161.123,22z M146.841,6.818l2.968,5.469l2.876-0.376l-2.497-5.327L146.841,6.818z M164.422,28.878l-0.092-2.829
			l-2.314-0.187l0.286,2.921L164.422,28.878z M159.757,17.567l1.036,4.006l2.546,0.33l-0.753-3.865L159.757,17.567z M151.083,6.536
			l2.405,5.281l3.153,0.186l-1.932-5.042L151.083,6.536z M157.919,12.57l1.459,4.524l2.879,0.472l-1.041-4.337L157.919,12.57z
			 M154.008,12.334l1.883,4.76l2.734,0.048l-1.511-4.572L154.008,12.334z M152.31,43.774l-0.897-2.874l-1.885-2.497l1.037,3.156
			L152.31,43.774z M158.768,26.102l-1.935,0.561l0.662,3.065l1.79-0.565L158.768,26.102z M159.568,31.896l-0.098-2.45l-1.788,0.564
			l0.187,2.499L159.568,31.896z M156.127,33.829l-0.188,1.979l1.414-0.986l0.187-1.983L156.127,33.829z M157.447,34.96l-1.414,0.99
			l-0.614,1.459l1.414-0.986L157.447,34.96z M163.339,35.574l-0.189-0.472l-1.934,0.281l0.099,0.471L163.339,35.574z
			 M161.593,33.736l-1.836,0.47l-0.188,1.086l1.838-0.471L161.593,33.736z M159.712,32.086l-1.7,0.609l-0.236,1.936l1.653-0.659
			L159.712,32.086z M149.104,37.224l-0.52-2.972L145.755,31l0.614,3.301L149.104,37.224z M163.95,33.688l-1.979,0.284l0.044,0.939
			l1.983-0.28L163.95,33.688z M151.273,40.24l-0.426-2.687l-1.981-2.829l0.518,2.972L151.273,40.24z M155.652,36.235l-1.128,1.317
			l-0.567,1.509l1.134-1.366L155.652,36.235z M145.993,33.878l-0.616-3.301l-3.719-3.63l0.704,3.771L145.993,33.878z
			 M153.865,47.452l-1.319-2.969l-1.698-2.123l1.462,3.255L153.865,47.452z M154.288,37.931l-0.8,1.651l-0.19,0.471l0.048-0.19
			l0.048-1.931l-0.426,1.931l-0.045,1.178v0.046V41.04v0.708l0.281-1.272l0.519-1.037L154.288,37.931z M153.204,45.001l-0.33-2.17
			l-0.52-2.12l0.377,2.5l0.331,1.225l-0.283-0.99l-1.129-2.216l0.896,2.877l1.035,2.024L153.204,45.001z M164.33,22.373l0.373,3.348
			l2.406,0.52l-0.143-3.208L164.33,22.373z M122.235-42.628l-1.272-0.707l-1.039,1.272l1.416,0.659L122.235-42.628z M93.718-50.876
			l-2.027-0.567l-0.424,1.981l2.122,0.422L93.718-50.876z M88.861-52.716l-0.188-0.988l-1.272-0.285l0.141,1.036L88.861-52.716z
			 M112.337,13.937l-4.573,1.039l4.479,3.156l3.865-1.365L112.337,13.937z M87.778-46.493l-3.206-0.521l-0.141,2.831l3.252,0.282
			L87.778-46.493z M75.663-40.695l2.688-0.331l-1.367-2.404l-2.829,0.141L75.663-40.695z M76.418-30.798l2.78,3.113l3.204-0.613
			l-2.497-2.829L76.418-30.798z M80.567-49.417l-0.521-1.839l-1.978-0.141l0.564,1.979H80.567z M115.634-36.123l3.819-1.698
			l-3.393-1.885l-4.385,1.745L115.634-36.123z M69.488-46.634l-1.225-1.509l-1.415,0.329l1.321,1.602L69.488-46.634z
			 M100.363-46.164l-3.111-0.988l-1.84,2.449l3.351,0.849L100.363-46.164z M113.185-43.712l-2.31-1.086l-2.497,2.263l2.639,0.943
			L113.185-43.712z M119.358-44.655l-0.892-0.425l-0.144,0.566l0.942,0.424L119.358-44.655z M107.811-39.988l-4.195-1.792
			l-3.157,2.592l4.618,1.603L107.811-39.988z M108.141-47.672l-1.742-0.754l-1.134,1.604l1.889,0.659L108.141-47.672z
			 M104.183-50.171l-1.179-0.423l-0.236,0.801l1.225,0.376L104.183-50.171z M87.967-34.003L86.928-37.3l-4.242-0.521l1.132,3.629
			L87.967-34.003z M89.616,9.033l4.146,0.754l1.511-1.555l-3.678-0.754L89.616,9.033z M89.003,21.244l1.838-0.427l0.095-0.702
			l-1.695,0.372L89.003,21.244z M96.97,22.659l3.488-0.236l0.705-1.463l-3.111,0.191L96.97,22.659z M91.973-3.409l-3.771-1.888
			l-3.11,1.274l4.29,2.027L91.973-3.409z M106.398,36.188l2.59-0.896l0.189-1.134l-2.356,0.753L106.398,36.188z M59.307-40.225
			l1.508,0.848l0.611-0.518l-1.41-0.8L59.307-40.225z M105.076,24.354l4.385,0.566l1.604-1.978l-3.819-0.613L105.076,24.354z
			 M80.66,6.207l2.732,0.045l0.519-0.988l-2.496-0.048L80.66,6.207z M102.153,10.401l-3.346,1.602l4.666,1.886l2.733-1.743
			L102.153,10.401z M66.284-11.659l1.742,0.189l0.282-0.614l-1.602-0.188L66.284-11.659z M67.885-25.094l-2.217-0.895l-1.035,0.754
			l2.451,0.942L67.885-25.094z M75.427-8.076l3.442,0.943l1.177-1.179l-3.063-0.897L75.427-8.076z M60.814-50.784l0.896,0.612
			l0.521-0.234l-0.85-0.566L60.814-50.784z M67.32-36.076l2.496,2.027l1.604-0.754l-2.263-1.886L67.32-36.076z M79.576-19.673
			l-3.158-1.933l-2.499,0.896l3.535,2.073L79.576-19.673z M73.919-54.318h-1.082l0.704,0.991l1.038-0.047L73.919-54.318z
			 M96.593-40.036l-4.478-1.32l-1.086,3.394l4.668,0.991L96.593-40.036z M162.488,1.681l1.842,2.875l3.531,0.048l-1.316-2.781
			L162.488,1.681z M171.633-2.136l-0.892-1.227l-2.358,1.179l1.178,1.129L171.633-2.136z M170.833-6.145l-0.706-0.8l-1.601,1.32
			l0.848,0.707L170.833-6.145z M161.406-2.75l1.882,2.357l3.399-0.375l-1.415-2.311L161.406-2.75z M161.406-9.678l2.401-1.134
			l-1.129-1.272l-2.735,1.227L161.406-9.678z M162.257-5.154l3.016-0.85l-1.322-1.791l-3.438,0.85L162.257-5.154z M160.701-13.686
			l1.601-1.32l-0.848-0.85l-1.792,1.416L160.701-13.686z M170.127-9.491l-0.473-0.47l-0.752,1.177l0.516,0.378L170.127-9.491z
			 M177.479,22.279l-0.659-1.979l-2.829-0.186l0.943,2.024L177.479,22.279z M177.149,25.863l-0.567-1.931l-2.688-0.286l0.804,2.028
			L177.149,25.863z M169.984,17.612l0.99,2.643l2.781,0.33l-0.661-2.547L169.984,17.612z M160.229-17.078l0.611-1.322l-0.567-0.518
			l-0.704,1.415L160.229-17.078z M169.046,9.505l1.361,2.356l3.017-0.045l-0.94-2.312H169.046z M169.517,13.606l1.174,2.593
			l2.924,0.189l-0.849-2.5L169.517,13.606z M168.618,5.452l1.414,2.026l2.924-0.424l-1.037-1.979L168.618,5.452z M168.383,1.54
			l1.364,1.554l2.643-0.8l-0.99-1.603L168.383,1.54z M159.851-19.955l-0.05-0.802l-0.33-0.282l0.05,0.848L159.851-19.955z
			 M138.499-28.298l2.92-1.416l-1.647-1.224l-3.349,1.461L138.499-28.298z M140.996-23.49l3.91-0.896l-2.167-1.933l-4.479,0.849
			L140.996-23.49z M136.706-32.21l1.365-1.557l-1.176-0.849l-1.509,1.604L136.706-32.21z M130.813-27.166l4.618-0.803l-3.109-2.592
			l-5.326,0.753L130.813-27.166z M126.95-32.872l3.816-1.32l-2.499-1.602l-4.382,1.369L126.95-32.872z M135.481-36.452l-0.853-0.566
			l-0.421,1.083l0.896,0.519L135.481-36.452z M143.82-17.928l4.482-0.377l-2.499-2.781l-5.188,0.281L143.82-17.928z M151.131-18.826
			l2.779-1.177l-1.415-1.32l-3.158,1.224L151.131-18.826z M154.618-8.878l3.96-0.332l-1.884-2.639l-4.529,0.236L154.618-8.878z
			 M156.503-3.409l4.099,0.189l-1.834-3.301l-4.76-0.377L156.503-3.409z M152.779-14.108l3.487-0.805l-1.742-1.931l-4.008,0.802
			L152.779-14.108z M123.886-37.536l2.121-1.748l-1.744-1.082l-2.405,1.838L123.886-37.536z M149.292-27.498l-0.707-0.566
			l-0.521,1.415l0.757,0.474L149.292-27.498z M149.765-22.831l1.695-1.509l-0.99-0.848l-1.885,1.602L149.765-22.831z
			 M147.973-28.816l-0.14-0.753l-0.427-0.33l0.144,0.8L147.973-28.816z M138.78,39.675l2.922,3.065l2.546-0.664l1.698,2.311
			l2.639,0.285l-2.45-3.443l-3.066-0.753l0.663,0.849l-2.173-2.402l-2.778,0.187l-2.83-2.17l-3.063,1.272l3.818,2.784L138.78,39.675
			z M185.306,74.699l0.049,0.801l1.223,0.943L186.53,75.5L185.306,74.699z M183.229,77.806v1.464l0.851,0.942v-1.649L183.229,77.806
			z M184.221,81.154l0.048,1.604l0.614,0.663l-0.048-1.747L184.221,81.154z M186.627,76.677l0.139,1.18l0.99,0.893l-0.143-1.318
			L186.627,76.677z M185.306,85.164l0.049,1.459l0.419,0.331l-0.091-1.56L185.306,85.164z M189.595,82.71l0.191,1.463l0.561,0.421
			l-0.232-1.601L189.595,82.71z M190.064,76.158L188.98,75.5l0.235,0.848l1.131,0.754L190.064,76.158z M188.086,79.362l0.187,1.416
			l0.803,0.706l-0.233-1.553L188.086,79.362z M178.707,84.363l0.471,0.516l0.094-1.743l-0.427-0.378L178.707,84.363z
			 M178.988,79.506l-0.664-0.757l-0.186,1.699l0.658,0.943L178.988,79.506z M178.797,76.583l-0.845-1.083l-0.284,1.461l0.848,1.272
			L178.797,76.583z M178.566,74.366l-1.042-1.272l-0.423,0.992l1.037,1.414L178.566,74.366z M183.278,76.204l-1.039-0.988
			l-0.094,1.132l1.038,1.178L183.278,76.204z M182.524,74.366l-1.178-1.082l-0.235,0.705l1.223,1.182L182.524,74.366z
			 M177.81,73.329l0.515-0.612l-1.129-1.226l0.187,0.189l0.615-0.139l-1.131-0.994l0.097,0.051l0.705,0.232l-1.367-0.846
			l-0.661-0.283l1.084,0.655l-0.563,0.099l1.035,0.942l-0.516,0.519L177.81,73.329z M191.104,86.623l0.187,1.274l0.329,0.14
			l-0.187-1.369L191.104,86.623z M181.533,73.423l0.281-0.377l-1.271-0.942l0.187,0.097h0.425l-1.415-0.758l-0.422-0.044
			l1.226,0.658l-0.33,0.285L181.533,73.423z M198.173,77.856l-0.659-0.189l0.473,1.037l0.752,0.235L198.173,77.856z M190.676,77.573
			l0.285,1.176l0.942,0.663l-0.329-1.321L190.676,77.573z M192.281,75.875l0.328,0.896l1.039,0.563l-0.375-1.033L192.281,75.875z
			 M192.471,80.212l0.33,1.366l0.704,0.472l-0.375-1.461L192.471,80.212z M196.431,80.448l0.422,1.226l0.614,0.283l-0.475-1.322
			L196.431,80.448z M190.444,74.462l0.231,0.613l1.228,0.516l-0.329-0.658L190.444,74.462z M194.355,83.464l0.279,1.321l0.472,0.237
			l-0.329-1.462L194.355,83.464z M196.147,76.019l-0.898-0.285l0.471,0.896l0.943,0.376L196.147,76.019z M194.308,77.856
			l0.425,1.131l0.848,0.425l-0.474-1.226L194.308,77.856z M114.504,34.535l-1.178,2.029l3.677-0.52l0.754-1.886L114.504,34.535z
			 M133.784,46.793l3.581,0.468l1.036-2.354l-3.108-0.566L133.784,46.793z M142.976,66.354l0.187,1.086l1.321-1.745l-0.281-0.897
			L142.976,66.354z M132.936,56.976l-0.048,1.41l2.026-1.649l-0.142-1.224L132.936,56.976z M141.467,55.322l2.924-0.471l0.283-2.261
			l-2.549,0.329L141.467,55.322z M137.271,56.785l2.591-1.32l0.052-1.932l-2.313,1.132L137.271,56.785z M149.436,60.508v2.262
			l2.168-1.176l-0.238-2.028L149.436,60.508z M146.227,63.15l0.143,1.789l1.839-1.789l-0.283-1.557L146.227,63.15z M145.377,54.146
			l3.017,0.566l0.521-2.266l-2.637-0.614L145.377,54.146z M117.238,47.97l-0.047,0.946l1.793-1.134l-0.095-0.803L117.238,47.97z
			 M152.874,74.18l0.28,0.753l0.803-1.695l-0.33-0.566L152.874,74.18z M125.723,35.195l-3.583-0.517l-1.979,2.309l4.102,0.472
			L125.723,35.195z M177.716,18.367l-0.706-1.934l-2.924,0.05l1.037,1.932L177.716,18.367z M120.209,25.768l-3.914-1.65
			l-3.205,1.886l4.571,1.791L120.209,25.768z M122.802,48.066l2.828-1.272l0.187-1.606l-2.545,1.04L122.802,48.066z M128.411,47.356
			l3.394-0.612l0.612-2.166l-3.019,0.422L128.411,47.356z M132.888,37.081l-3.533-1.6l-2.642,2.026l4.101,1.695L132.888,37.081z
			 M171.493,77.102l0.659,1.224l0.52-1.882l-0.658-1.039L171.493,77.102z M152.451,58.577l-0.142,2.311l2.356-0.286l-0.096-2.216
			L152.451,58.577z M165.364,69.655l0.66,1.887l1.132-1.323l-0.753-1.694L165.364,69.655z M166.311,67.297l0.706,1.931l1.272-0.611
			l-0.802-1.789L166.311,67.297z M171.35,80.964l0.473,0.757l0.33-1.886l-0.473-0.614L171.35,80.964z M171.822,71.069l0.943,1.695
			l0.799-0.942l-0.987-1.553L171.822,71.069z M171.68,73.757l0.804,1.553l0.658-1.506l-0.848-1.372L171.68,73.757z M172.862,67.955
			l-0.992-0.515l0.896,0.701l-0.847-0.187l0.801,0.944l-0.85,0.236l1.035,1.604l0.942-0.331l-0.844-1.181l0.044,0.048l0.989,0.189
			l-0.989-1.081l1.038,0.516L172.862,67.955z M169.374,65.552l-1.322-0.897l0.708,0.711l-1.084-0.52l0.613,0.992l-1.18-0.143
			l0.752,1.695l1.371,0.05l-0.659-1.272l1.363,0.562l-0.802-1.132l1.226,0.849L169.374,65.552z M164.374,72.717l0.567,1.602
			l0.942-1.834l-0.659-1.37L164.374,72.717z M154.899,70.456l0.381,1.415l1.176-1.982l-0.473-1.176L154.899,70.456z M157.21,55.748
			l0.659-0.659l1.273,1.416l0.472-0.143l-2.075-2.356l-0.754-0.143l0.521,0.613l-1.653-1.7l-0.942,0.428l-1.556-1.272l-0.845,0.896
			l-2.262-1.273l-1.04,1.793l2.924,1.504l0.52-1.504l2.401,1.886l0.661-1.184L157.21,55.748z M156.976,67.154l0.377,1.931
			l1.506-1.602l-0.517-1.695L156.976,67.154z M158.909,64.565l0.376,2.164l1.699-0.892l-0.521-1.982L158.909,64.565z
			 M163.386,76.395l0.473,1.082l0.705-1.977l-0.519-0.852L163.386,76.395z M160.701,62.725l0.328,2.073l1.84-0.092l-0.523-1.981
			H160.701z M156.833,52.875l-2.072-2.877l-1.509-0.895l2.4,3.203L156.833,52.875z M118.7-22.313l4.29-1.647l-5.468-4.621
			l-5.091,1.697L118.7-22.313z M111.017-2.939l-6.834-1.886l2.216,4.999l6.458,1.222L111.017-2.939z M116.061-32.587l4.854,3.063
			l4.526-1.273l-4.102-3.063L116.061-32.587z M112.29-20.757l2.781-2.875l-6.318-4.196l-3.346,3.158L112.29-20.757z M108.141-21.416
			l-6.74-3.159l-1.037,4.29l6.928,2.686L108.141-21.416z M113.704,8.562l-3.111-3.816l-5.845-0.236l3.722,4.338L113.704,8.562z
			 M98.052-31.363l6.035,2.217l1.839-3.161l-5.654-2.544L98.052-31.363z M121.057-26.792l5.279,4.526l5.044-0.659l-4.43-4.385
			L121.057-26.792z M106.207-33.154l5.658,2.97l3.581-2.218l-5.043-3.063L106.207-33.154z M156.172-1.903l2.215,4.104l4.01,0.656
			l-1.653-3.817L156.172-1.903z M158.296,3.142l1.839,4.479l3.724,0.942l-1.272-4.193L158.296,3.142z M149.809-5.061l2.595,5.517
			l4.382,1.273l-1.933-5.138L149.809-5.061z M146.556-10.528l3.11,4.808l4.716,0.802l-2.355-4.478L146.556-10.528z M134.772-19.107
			l4.199,5.092l5.23,0.471l-3.35-4.808L134.772-19.107z M130.671-24.622l4.196,3.865l5.091-0.234l-3.393-3.678L130.671-24.622z
			 M143.448-15.806l3.298,3.863l4.761,0.235l-2.546-3.675L143.448-15.806z M177.854,14.218l-0.753-1.695l-2.873,0.378l1.081,1.696
			L177.854,14.218z M197.75,43.069l0.14,0.66h0.896l-0.094-0.66H197.75z M159.757,36.138l-1.79,0.427l-0.048,0.143l1.882-0.427
			L159.757,36.138z M158.199,54.569l-1.886-2.737l-1.033-1.128l2.119,3.015L158.199,54.569z M113.563-8.737l-7.26-3.581l0.142,4.901
			l7.26,2.97L113.563-8.737z M151.882,47.074l-2.168-3.438l-2.734-1.509l2.501,3.91L151.882,47.074z M168.241,35.854l-1.838-0.089
			l0.515,0.471l1.886,0.09L168.241,35.854z M167.393,36.609l-1.647-0.143l0.565,0.286l1.693,0.141L167.393,36.609z M149.384,42.786
			l-1.742-3.676l-3.302-2.455l2.029,4.149L149.384,42.786z M145.804,40.052l-2.072-4.008l-4.058-2.264l2.451,4.574L145.804,40.052z
			 M117.853-12.555l-7.074-5.044l-2.165,3.958l7.494,4.667L117.853-12.555z M121.857,8.752l-0.895-4.572l-7.164-3.724l1.129,5.233
			L121.857,8.752z M124.828,21.716l2.546,4.101l4.995,0.846l-2.498-4.192l-5.561-1.556l0.281,0.472l-2.923-3.349l-5.325-0.095
			l3.865,4.244L124.828,21.716z M163.716,6.207l1.601,3.299l3.443,0.378l-1.129-3.111L163.716,6.207z M128.317,29.208l-3.583-2.686
			l-3.961,1.227l4.29,3.016L128.317,29.208z M122.753,14.832l-2.309-4.383l-6.459-1.791l2.782,5.09L122.753,14.832z M193.882,41.559
			l0.283,0.801l1.084,0.096l-0.188-0.756L193.882,41.559z M194.024,45.66l0.238,0.8l0.942,0.238l-0.189-0.799L194.024,45.66z
			 M193.46,37.126l0.283,0.757l1.132-0.046l-0.189-0.756L193.46,37.126z M195.205,56.123l0.47,0.331l-0.142-0.941l-0.472-0.331
			L195.205,56.123z M192.232,43.115l0.33,0.848l1.041,0.235l-0.285-0.845L192.232,43.115z M195.488,52.684l0.659,0.334l-0.143-0.855
			l-0.708-0.33L195.488,52.684z M190.914,34.158l0.376,0.802l1.319-0.095l-0.233-0.8L190.914,34.158z M189.595,28.975l0.423,0.8
			l1.369-0.284l-0.283-0.8L189.595,28.975z M191.76,38.825l0.33,0.85l1.229,0.093l-0.236-0.8L191.76,38.825z M197.605,59.566
			l0.429,0.283l0.139-0.85l-0.469-0.279L197.605,59.566z M197.704,56.785l-0.521-0.331l-0.048,0.851l0.521,0.282L197.704,56.785z
			 M164.941,10.778l1.318,3.49l3.205,0.611l-0.892-3.3L164.941,10.778z M195.769,44.341l0.189,0.755l0.944,0.14l-0.141-0.708
			L195.769,44.341z M195.769,40.098l0.189,0.659h0.989l-0.142-0.659H195.769z M196.902,50.704l0.09,0.799l0.758,0.286l-0.046-0.756
			L196.902,50.704z M195.769,49.008l0.851,0.234l-0.142-0.8l-0.897-0.283L195.769,49.008z M198.034,54.005l0.658,0.284v-0.757
			l-0.706-0.329L198.034,54.005z M170.36,21.527l0.804,2.497l2.592,0.377L173.236,22L170.36,21.527z M173.756,26.947l0.709,1.837
			l2.309,0.285l-0.521-1.792L173.756,26.947z M177.102,33.029l2.028,0.279l-0.614-1.317l-2.12-0.285L177.102,33.029z
			 M166.024,15.304l0.992,3.44l2.92,0.658l-0.61-3.251L166.024,15.304z M167.393,23.602l0.52,2.731l2.448,0.473l-0.283-2.64
			L167.393,23.602z M188.514,32.134l1.504-0.144l-0.329-0.943l-1.647,0.143L188.514,32.134z M166.873,19.641l0.709,3.158
			l2.639,0.614l-0.423-3.02L166.873,19.641z M177.624,30.479l2.116,0.239l-0.563-1.511l-2.312-0.232L177.624,30.479z
			 M185.443,29.398l1.745-0.144l-0.423-1.082l-1.931,0.143L185.443,29.398z M182.429,22.659l0.708,1.175l1.932-0.33l-0.47-1.175
			L182.429,22.659z M186.155,25.817l0.516,0.943l1.602-0.329l-0.373-0.993L186.155,25.817z M181.347,29.68l2.025,0.095l-0.519-1.32
			l-2.215-0.093L181.347,29.68z M177.81,22.799l0.849,1.603l2.31-0.048l-0.565-1.602L177.81,22.799z M178.093,27.56l2.262,0.143
			l-0.566-1.602l-2.45-0.143L178.093,27.56z M182.194,26.806l2.026-0.096l-0.472-1.272l-2.216,0.096L182.194,26.806z
			 M135.198,32.934l2.073,3.063l3.862,0.568l-2.543-3.869l-4.335-1.175l0.472,0.66l-2.452-2.781l-4.336,0.093l3.678,3.96
			L135.198,32.934z M197.277,28.691l-0.142-0.375l-0.517,0.329l0.187,0.33L197.277,28.691z M198.409,47.923l-0.047-0.706
			l-0.896-0.19l0.139,0.705L198.409,47.923z M195.628,36.094l0.943-0.19l-0.141-0.611l-1.04,0.189L195.628,36.094z M197.986,39.298
			l0.8-0.143l-0.094-0.566l-0.897,0.143L197.986,39.298z M198.362,34.158l-0.143-0.471l-0.753,0.284l0.189,0.468L198.362,34.158z
			 M195.675,30.577l-0.187-0.567l-0.897,0.332l0.233,0.52L195.675,30.577z M194.072,24.731l-0.19-0.47l-0.752,0.47l0.232,0.427
			L194.072,24.731z M192.66,32.225l0.33,0.709l1.128-0.239l-0.186-0.705L192.66,32.225z M191.619,27.464l1.041-0.424l-0.242-0.659
			l-1.175,0.472L191.619,27.464z M202.464,45.66v-0.519h-0.71l0.096,0.519H202.464z M200.341,46.698l-0.048-0.613l-0.846-0.096
			l0.091,0.614L200.341,46.698z M201.707,49.668v-0.612l-0.8-0.097l0.047,0.614L201.707,49.668z M202.839,41.277l-0.046-0.377
			l-0.52,0.14l0.093,0.378L202.839,41.277z M200.765,42.411l-0.045-0.521l-0.8,0.092l0.139,0.519L200.765,42.411z M200.72,37.696
			l-0.096-0.427l-0.614,0.19l0.141,0.423L200.72,37.696z M183.089,6.818l-0.33-0.518l-0.848,0.895l0.426,0.425L183.089,6.818z
			 M181.486,20.771l-0.612-1.461l-2.55,0.233l0.854,1.464L181.486,20.771z M191.574,18.415l-0.188-0.377l-0.569,0.518l0.239,0.33
			L191.574,18.415z M177.435-1.055l-0.382-0.468l-0.752,1.036l0.473,0.425L177.435-1.055z M182.383,13.371l-0.568-1.084
			l-1.976,0.802l0.752,0.989L182.383,13.371z M177.854,10.024l-0.753-1.462l-2.637,0.707l1.036,1.416L177.854,10.024z
			 M177.573,2.201l-0.563-0.805l-1.462,1.134l0.705,0.707L177.573,2.201z M182.759,9.931l-0.473-0.802l-1.46,0.943l0.613,0.707
			L182.759,9.931z M177.763,5.922l-0.71-1.131l-2.118,1.037l0.942,1.038L177.763,5.922z M182.003,17.047l-0.608-1.318l-2.359,0.564
			l0.848,1.274L182.003,17.047z M188.086,24.073l1.365-0.521l-0.329-0.8l-1.509,0.521L188.086,24.073z M190.488,20.867l-0.285-0.612
			l-1.031,0.612l0.373,0.563L190.488,20.867z M188.132,11.58l-0.189-0.281l-0.373,0.563l0.233,0.236L188.132,11.58z M185.826,20.208
			l-0.428-0.991l-1.887,0.567l0.614,0.987L185.826,20.208z M203.922,48.818v-0.519l-0.656-0.047l0.045,0.521L203.922,48.818z
			 M186.627,17.047l-0.381-0.8l-1.462,0.754l0.521,0.754L186.627,17.047z M187.38,14.125l-0.33-0.566l-0.942,0.754l0.377,0.519
			L187.38,14.125z M194.921,72.057l-1.131,0.189l0.282,0.238l1.133-0.189L194.921,72.057z M204.68,44.765l-0.049-0.377l-0.472,0.048
			l0.093,0.377L204.68,44.765z M193.13,72.859l-1.227,0.097l0.236,0.187l1.273-0.097L193.13,72.859z M192.891,74.18l-0.281-0.376
			l-1.223-0.189l0.232,0.375L192.891,74.18z M191.104,73.376h-1.317l0.137,0.143h1.367L191.104,73.376z M190.303,74.366
			l-0.188-0.329l-1.32-0.33l0.137,0.282L190.303,74.366z M184.362,73.284l-1.414-0.613l-0.189,0.094l1.462,0.658L184.362,73.284z
			 M194.777,73.284l-1.129-0.095l0.328,0.376l1.178,0.095L194.777,73.284z M194.732,75.358l-0.425-0.659l-1.084-0.284l0.38,0.614
			L194.732,75.358z M188.842,75.358l-0.143-0.614l-1.272-0.612l0.095,0.517L188.842,75.358z M185.398,74.18l-1.319-0.804
			l-0.095,0.428l1.37,0.845L185.398,74.18z M187.38,73.848l-1.416-0.472v0.238l1.416,0.518V73.848z M192.471,72.623l1.133-0.423
			l-0.19-0.05l-1.132,0.425L192.471,72.623z M187.427,73.519l1.415,0.142l-0.048-0.046l-1.414-0.142L187.427,73.519z
			 M196.288,69.985l-0.238-0.144l-0.896,0.566l0.236,0.14L196.288,69.985z M204.488,51.884l0.566,0.092l0.048-0.472l-0.614-0.093
			V51.884z M207.456,51.553v-0.379l-0.419-0.043l0.047,0.372L207.456,51.553z M201.093,68.616l-0.515-0.423l-0.706,0.376
			l0.518,0.375L201.093,68.616z M206.184,48.204V47.83h-0.423l0.051,0.374H206.184z M197.136,74.744l-0.517-0.658l-0.991-0.143
			l0.469,0.613L197.136,74.744z M200.106,70.27l-0.52-0.428l-0.801,0.285l0.473,0.421L200.106,70.27z M196.05,72.859l1.086-0.045
			l-0.422-0.428l-1.039,0.045L196.05,72.859z M198.078,69.936l-0.374-0.28l-0.898,0.373l0.378,0.241L198.078,69.936z
			 M196.806,71.208l-0.328-0.233l-0.989,0.282l0.33,0.234L196.806,71.208z M199.259,76.254l-0.566-0.896l-0.803-0.143l0.52,0.847
			L199.259,76.254z M199.209,73.804l-0.562-0.661h-0.853l0.519,0.614L199.209,73.804z M198.738,71.681l-0.472-0.424l-0.896,0.142
			l0.425,0.424L198.738,71.681z"/>
		<path fill="#2A2421" d="M204.208,78.517c0-0.283-0.049-0.52-0.143-0.756c-0.097-0.235-0.235-0.426-0.377-0.613
			c-0.191-0.187-0.378-0.284-0.611-0.423c-0.238-0.095-0.47-0.142-0.756-0.142c-0.284,0-0.52,0.047-0.754,0.142
			c-0.232,0.094-0.424,0.236-0.613,0.423c-0.189,0.188-0.282,0.378-0.376,0.613c-0.097,0.236-0.144,0.473-0.144,0.756
			s0.047,0.517,0.144,0.753c0.094,0.236,0.231,0.422,0.376,0.612c0.189,0.19,0.381,0.282,0.613,0.424
			c0.234,0.098,0.47,0.143,0.754,0.143c0.286,0,0.518-0.045,0.756-0.143c0.233-0.094,0.42-0.233,0.611-0.424s0.28-0.376,0.377-0.612
			C204.159,79.033,204.208,78.749,204.208,78.517z M203.407,79.033c-0.048,0.143-0.142,0.283-0.238,0.426
			c-0.092,0.091-0.232,0.187-0.376,0.282c-0.144,0.048-0.329,0.094-0.472,0.094c-0.187,0-0.33-0.046-0.472-0.094
			c-0.143-0.05-0.282-0.144-0.376-0.282c-0.095-0.097-0.191-0.238-0.236-0.426c-0.046-0.142-0.094-0.329-0.094-0.517
			c0-0.191,0.048-0.377,0.094-0.52c0.045-0.141,0.142-0.282,0.236-0.424c0.094-0.097,0.233-0.19,0.376-0.282
			c0.142-0.047,0.33-0.095,0.472-0.095c0.188,0,0.328,0.048,0.472,0.095c0.144,0.044,0.284,0.14,0.376,0.282
			c0.097,0.094,0.19,0.232,0.238,0.424c0.046,0.143,0.09,0.328,0.09,0.52C203.497,78.704,203.497,78.892,203.407,79.033z
			 M207.697,78.939v1.415h0.659v-1.605c0-0.187-0.047-0.376-0.097-0.516c-0.047-0.143-0.142-0.236-0.233-0.329
			c-0.098-0.099-0.236-0.144-0.38-0.144c-0.138-0.046-0.279-0.046-0.423-0.046c-0.14,0-0.283,0-0.426,0.046
			c-0.142,0.045-0.28,0.096-0.423,0.144c-0.095-0.048-0.191-0.144-0.33-0.144c-0.142-0.046-0.284-0.046-0.377-0.046
			c-0.143,0-0.284,0-0.474,0.046c-0.186,0.045-0.372,0.045-0.611,0.096v2.498h0.658v-1.981l0.239-0.048c0.045,0,0.142,0,0.188,0
			c0.093,0,0.187,0,0.235,0.048c0.048,0,0.142,0.047,0.142,0.096c0.05,0.048,0.096,0.094,0.096,0.19c0,0.09,0.043,0.188,0.043,0.28
			v1.415h0.663v-1.463c0-0.044,0-0.092,0-0.143c0-0.045,0-0.09,0-0.139c0-0.048,0-0.094,0-0.142c0-0.049,0-0.049-0.049-0.096
			c0.097-0.048,0.143-0.048,0.239-0.095c0.089,0,0.187-0.045,0.232-0.045c0.187,0,0.284,0.045,0.377,0.14
			C207.646,78.517,207.697,78.704,207.697,78.939z M209.862,80.403c0.19,0,0.379,0,0.565-0.049c0.188-0.049,0.377-0.092,0.52-0.143
			v-1.508c0-0.188-0.048-0.331-0.092-0.471c-0.051-0.143-0.143-0.236-0.239-0.329c-0.092-0.099-0.234-0.144-0.375-0.189
			c-0.143-0.048-0.284-0.048-0.472-0.048s-0.331,0-0.518,0.048c-0.143,0.046-0.283,0.091-0.381,0.142l-0.091,0.66
			c0.046-0.048,0.139-0.048,0.188-0.097c0.094-0.047,0.141-0.047,0.231-0.095c0.099,0,0.144-0.047,0.238-0.047
			c0.094,0,0.144,0,0.232,0c0.191,0,0.334,0.047,0.428,0.095c0.092,0.047,0.143,0.144,0.143,0.286v0.045
			c-0.098,0-0.188-0.045-0.284-0.045c-0.095,0-0.143,0-0.233,0c-0.191,0-0.333,0-0.472,0.045c-0.143,0.045-0.283,0.096-0.381,0.144
			c-0.091,0.092-0.187,0.14-0.23,0.283c-0.051,0.09-0.099,0.231-0.099,0.375c0,0.14,0.048,0.283,0.099,0.376
			c0.044,0.095,0.14,0.19,0.278,0.282c0.096,0.048,0.237,0.099,0.38,0.142C209.532,80.403,209.724,80.403,209.862,80.403z
			 M210.335,79.221v0.521c-0.049,0.048-0.145,0.048-0.236,0.048c-0.094,0-0.142,0-0.236,0c-0.139,0-0.28-0.048-0.377-0.048
			c-0.095-0.05-0.142-0.144-0.142-0.235c0-0.047,0-0.094,0.047-0.144c0.048-0.046,0.095-0.093,0.142-0.093
			c0.05-0.049,0.139-0.049,0.191-0.049c0.046,0,0.139,0,0.233,0c0.048,0,0.142,0,0.233,0
			C210.19,79.221,210.286,79.221,210.335,79.221z M211.417,77.806v2.549h0.66v-1.981c0.095,0,0.19-0.048,0.283-0.048
			c0.097,0,0.143,0,0.237,0c0.188,0,0.33,0.048,0.425,0.144c0.093,0.094,0.141,0.235,0.141,0.471v1.415h0.66v-1.605
			c0-0.187-0.048-0.376-0.095-0.516c-0.044-0.143-0.143-0.236-0.234-0.329c-0.094-0.099-0.237-0.144-0.379-0.144
			c-0.143-0.046-0.282-0.046-0.472-0.046c-0.046,0-0.141,0-0.235,0l-0.28,0.046c-0.099,0-0.189,0-0.329,0.045
			C211.655,77.806,211.561,77.806,211.417,77.806z M213.967,76.677l1.271,3.678h0.848l1.272-3.678h-0.706l-0.942,3.015l-0.943-3.015
			H213.967z M217.688,77.619c0.095,0,0.189-0.046,0.286-0.094c0.042-0.049,0.089-0.143,0.089-0.234c0-0.095-0.047-0.189-0.089-0.238
			c-0.05-0.047-0.144-0.092-0.286-0.092c-0.141,0-0.187,0.045-0.283,0.092c-0.094,0.049-0.094,0.144-0.094,0.238
			c0,0.092,0.047,0.186,0.094,0.234C217.501,77.619,217.593,77.619,217.688,77.619z M217.357,77.806v2.549h0.658v-2.549H217.357z
			 M219.478,79.789c-0.189,0-0.329,0-0.518-0.098c-0.141-0.046-0.283-0.094-0.425-0.186l-0.232,0.614
			c0.094,0.044,0.142,0.092,0.232,0.092c0.095,0.051,0.189,0.051,0.284,0.094c0.097,0,0.186,0.049,0.329,0.049
			c0.098,0,0.19,0,0.329,0c0.191,0,0.381,0,0.52-0.049c0.142-0.043,0.28-0.094,0.378-0.186c0.094-0.1,0.187-0.144,0.236-0.238
			c0.048-0.093,0.094-0.19,0.094-0.332c0-0.233-0.094-0.419-0.236-0.563c-0.139-0.14-0.377-0.238-0.753-0.283l-0.19-0.045
			c-0.139-0.049-0.279-0.049-0.329-0.097c-0.048-0.046-0.094-0.094-0.094-0.143c0-0.095,0.144-0.187,0.375-0.187
			c0.097,0,0.142,0,0.238,0c0.092,0,0.143,0,0.233,0.045c0.096,0,0.143,0.047,0.239,0.047c0.089,0.048,0.142,0.048,0.187,0.095
			l0.236-0.614c-0.143-0.091-0.334-0.139-0.52-0.187c-0.189-0.046-0.376-0.046-0.614-0.046c-0.329,0-0.611,0.046-0.801,0.232
			c-0.187,0.144-0.28,0.334-0.28,0.567c0,0.237,0.094,0.376,0.233,0.519c0.144,0.142,0.375,0.239,0.658,0.284l0.189,0.045
			c0.142,0.049,0.285,0.049,0.33,0.096c0.051,0.046,0.095,0.096,0.095,0.143c0,0.091-0.044,0.139-0.14,0.139
			C219.763,79.789,219.619,79.789,219.478,79.789z M221.317,77.619c0.094,0,0.188-0.046,0.285-0.094
			c0.046-0.049,0.09-0.143,0.09-0.234c0-0.095-0.044-0.189-0.09-0.238c-0.048-0.047-0.142-0.092-0.285-0.092
			c-0.097,0-0.187,0.045-0.283,0.092c-0.046,0.049-0.093,0.144-0.093,0.238c0,0.092,0.047,0.186,0.093,0.234
			C221.131,77.619,221.221,77.619,221.317,77.619z M221.034,77.806v2.549h0.658v-2.549H221.034z M223.863,80.306
			c0.188-0.043,0.329-0.186,0.427-0.285c0.139-0.139,0.231-0.279,0.28-0.423c0.048-0.186,0.095-0.328,0.095-0.52
			c0-0.187-0.047-0.374-0.095-0.516c-0.095-0.143-0.189-0.329-0.28-0.423c-0.144-0.143-0.283-0.235-0.427-0.283
			c-0.188-0.051-0.331-0.096-0.565-0.096c-0.191,0-0.378,0.045-0.563,0.096c-0.189,0.048-0.331,0.188-0.428,0.283
			c-0.143,0.139-0.231,0.28-0.284,0.423c-0.045,0.142-0.091,0.329-0.091,0.516c0,0.191,0.046,0.381,0.091,0.52
			c0.053,0.191,0.19,0.334,0.284,0.423c0.144,0.144,0.285,0.242,0.428,0.285c0.186,0.049,0.33,0.098,0.563,0.098
			C223.532,80.403,223.723,80.354,223.863,80.306z M223.013,79.741c-0.093-0.05-0.139-0.096-0.234-0.144
			c-0.044-0.048-0.095-0.139-0.143-0.235c-0.044-0.093-0.044-0.187-0.044-0.284c0-0.091,0-0.187,0.044-0.278
			c0.048-0.096,0.099-0.189,0.143-0.237c0.048-0.046,0.142-0.143,0.234-0.143c0.094-0.047,0.19-0.047,0.285-0.047
			s0.234,0,0.281,0.047c0.097,0.049,0.144,0.097,0.238,0.143c0.046,0.048,0.091,0.142,0.139,0.237
			c0.051,0.092,0.051,0.188,0.051,0.278c0,0.098,0,0.191-0.051,0.284c-0.048,0.097-0.093,0.188-0.139,0.235
			c-0.048,0.048-0.142,0.144-0.238,0.144c-0.095,0.048-0.187,0.048-0.281,0.048S223.106,79.789,223.013,79.741z M224.994,77.806
			v2.549h0.66v-1.981c0.095,0,0.188-0.048,0.283-0.048c0.095,0,0.142,0,0.233,0c0.191,0,0.334,0.048,0.426,0.144
			c0.097,0.094,0.141,0.235,0.141,0.471v1.415h0.659v-1.605c0-0.187-0.046-0.376-0.092-0.516c-0.048-0.143-0.141-0.236-0.238-0.329
			c-0.093-0.099-0.23-0.144-0.373-0.144c-0.142-0.046-0.285-0.046-0.472-0.046c-0.051,0-0.143,0-0.236,0l-0.283,0.046
			c-0.095,0-0.189,0-0.331,0.045C225.229,77.806,225.136,77.806,224.994,77.806z M216.462,53.347L216.462,53.347L216.462,53.347
			L216.462,53.347z M217.124,53.156c-0.19,0.14-0.38,0.191-0.614,0.191v0.516c0.28,0,0.563-0.045,0.801-0.187
			c0.282-0.143,0.52-0.285,0.705-0.52c0.189-0.189,0.381-0.423,0.52-0.709c0.142-0.234,0.189-0.516,0.189-0.753
			c0-0.422-0.095-0.705-0.328-0.848c-0.191-0.186-0.473-0.284-0.753-0.284c-0.286,0-0.52,0.098-0.71,0.241
			c-0.189,0.138-0.282,0.417-0.282,0.751c0,0.14,0.05,0.331,0.093,0.422c0.046,0.142,0.144,0.237,0.237,0.33
			c0.092,0.099,0.234,0.19,0.329,0.239c0.094,0.046,0.236,0.092,0.333,0.14C217.501,52.875,217.311,53.018,217.124,53.156z
			 M217.216,51.646L217.216,51.646c0-0.186,0.047-0.329,0.142-0.427c0.097-0.088,0.189-0.139,0.33-0.139
			c0.143,0,0.286,0.051,0.328,0.139c0.1,0.098,0.145,0.284,0.145,0.427c0,0.097,0,0.186-0.045,0.285
			c-0.053,0.093-0.1,0.186-0.142,0.33c-0.191-0.048-0.381-0.099-0.52-0.237C217.311,51.931,217.216,51.79,217.216,51.646z
			 M241.069,62.819h0.139h5.896v-8.957h-1.13v7.873h-5c-0.235,0-0.472-0.049-0.709-0.189c-0.233-0.141-0.422-0.329-0.563-0.565
			c-0.188-0.236-0.286-0.518-0.375-0.847c-0.097-0.332-0.143-0.709-0.143-1.084v-5.187h-3.726c-0.705,0-1.318,0.143-1.79,0.376
			c-0.472,0.237-0.897,0.566-1.178,0.994c-0.281,0.418-0.473,0.891-0.614,1.411c-0.138,0.52-0.187,1.037-0.187,1.509
			c0,0.659,0.092,1.227,0.281,1.744c0.19,0.472,0.469,0.896,0.85,1.226c0.331,0.329,0.751,0.565,1.176,0.757
			c0.473,0.187,0.9,0.281,1.371,0.281c0.329,0,0.658-0.049,0.94-0.143c0.279-0.092,0.564-0.235,0.851-0.377
			c0.283-0.143,0.469-0.329,0.658-0.519c0.187-0.186,0.328-0.425,0.471-0.613c0.186,0.756,0.516,1.322,1.039,1.745
			C239.745,62.631,240.36,62.819,241.069,62.819z M235.269,61.074L235.269,61.074c-0.283,0-0.563-0.094-0.845-0.187
			c-0.284-0.096-0.567-0.286-0.805-0.521c-0.236-0.234-0.468-0.518-0.609-0.896c-0.143-0.376-0.239-0.801-0.239-1.32
			c0-0.518,0.05-0.942,0.19-1.367c0.139-0.378,0.282-0.752,0.521-1.037c0.231-0.283,0.472-0.471,0.801-0.659
			c0.329-0.142,0.656-0.238,1.033-0.238h2.596v3.301c0,0.471-0.095,0.897-0.238,1.272c-0.187,0.377-0.375,0.658-0.614,0.848
			c-0.23,0.236-0.517,0.378-0.845,0.52C235.928,61.025,235.6,61.074,235.269,61.074z M249.552,52.404h-0.562v0.372h2.259v-0.372
			h-0.943c-0.187,0-0.329-0.051-0.47-0.191c-0.143-0.139-0.189-0.329-0.189-0.566c0-0.236,0.047-0.427,0.189-0.515
			c0.097-0.098,0.235-0.191,0.427-0.191c0.187,0,0.329,0.048,0.423,0.191c0.094,0.088,0.139,0.279,0.139,0.422h0.381
			c0-0.334-0.097-0.565-0.283-0.751c-0.188-0.143-0.428-0.241-0.659-0.241c-0.33,0-0.569,0.098-0.711,0.284
			c-0.189,0.188-0.232,0.426-0.232,0.708c0,0.19,0.043,0.331,0.09,0.471c0.052,0.138,0.143,0.237,0.19,0.329v0.051H249.552z
			 M251.814,67.343L251.814,67.343c0.85-0.046,1.652-0.188,2.267-0.422c0.658-0.283,1.173-0.709,1.555-1.369
			c0.376-0.655,0.704-1.459,0.891-2.498c0.191-1.037,0.284-2.31,0.284-3.818c0-0.897-0.046-1.697-0.187-2.355
			c-0.098-0.709-0.328-1.272-0.612-1.791c-0.286-0.471-0.71-0.851-1.23-1.084c-0.515-0.236-1.128-0.379-1.93-0.379
			c-0.755,0-1.413,0.143-1.93,0.379c-0.521,0.284-0.899,0.613-1.229,1.084c-0.28,0.472-0.517,0.943-0.614,1.554
			c-0.089,0.566-0.186,1.18-0.186,1.792c0,0.614,0.097,1.228,0.235,1.743c0.19,0.519,0.423,0.989,0.753,1.416
			c0.331,0.375,0.754,0.704,1.227,0.942c0.469,0.233,1.086,0.331,1.743,0.331h2.45c-0.092,0.658-0.278,1.226-0.469,1.647
			c-0.189,0.425-0.469,0.754-0.752,1.037c-0.331,0.286-0.709,0.474-1.133,0.566c-0.424,0.094-0.942,0.139-1.51,0.139
			c-0.233,0-0.473,0-0.753-0.089c-0.236-0.05-0.473-0.143-0.614-0.241v1.134c0.142,0.051,0.28,0.094,0.472,0.189
			c0.143,0.047,0.281,0.093,0.52,0.093C251.344,67.297,251.535,67.343,251.814,67.343z M250.213,58.482L250.213,58.482
			c0.05-0.563,0.093-1.085,0.188-1.506c0.093-0.471,0.234-0.853,0.471-1.182c0.19-0.329,0.472-0.562,0.85-0.752
			c0.33-0.191,0.756-0.282,1.227-0.282c0.989,0,1.647,0.374,2.075,1.082c0.374,0.752,0.612,1.838,0.612,3.349
			c0,0.519,0,0.987-0.049,1.411c0,0.424-0.048,0.849-0.048,1.224h-2.591c-0.942,0-1.654-0.279-2.076-0.845
			C250.401,60.416,250.213,59.566,250.213,58.482z M258.743,66.212l0.048-0.044c-0.188,0-0.423,0-0.609-0.098
			c-0.19-0.045-0.378-0.144-0.569-0.232v1.131c0.096,0.044,0.191,0.143,0.284,0.186c0.095,0.045,0.234,0.096,0.376,0.143
			c0.188,0.046,0.379,0.046,0.661,0.046c0.473,0,0.896-0.093,1.225-0.282c0.33-0.19,0.612-0.52,0.8-0.893
			c0.191-0.38,0.382-0.851,0.473-1.414c0.095-0.57,0.14-1.131,0.14-1.795v-9.051h-1.129v9.051c0,0.614-0.044,1.134-0.092,1.556
			c-0.051,0.425-0.144,0.754-0.282,1.037c-0.143,0.286-0.284,0.474-0.521,0.566C259.355,66.168,259.077,66.212,258.743,66.212z
			 M177.053,55.371l-1.505-1.509l-1.557,1.556l1.51,1.509L177.053,55.371z M180.639,57.066v2.077c0,1.081-0.095,2.024-0.377,2.826
			c-0.237,0.801-0.565,1.414-1.037,1.934c-0.473,0.521-0.989,0.896-1.651,1.132c-0.61,0.234-1.32,0.378-2.122,0.378
			c-0.753,0-1.46-0.095-2.118-0.378c-0.661-0.236-1.181-0.611-1.653-1.132c-0.472-0.52-0.8-1.133-1.034-1.934
			c-0.238-0.802-0.377-1.745-0.377-2.826v-2.077h-2.123v2.358c0,0.943,0.096,1.886,0.381,2.829c0.233,0.944,0.658,1.788,1.221,2.545
			c0.571,0.754,1.322,1.37,2.216,1.792c0.942,0.471,2.074,0.66,3.488,0.66l0,0l0,0c1.415,0,2.546-0.237,3.489-0.66
			c0.942-0.472,1.65-1.038,2.215-1.792c0.569-0.757,0.942-1.601,1.228-2.545c0.237-0.942,0.376-1.886,0.376-2.829v-2.358H180.639z
			 M204.961,63.383c0.942,0,1.742-0.186,2.451-0.516c0.706-0.378,1.272-0.898,1.65-1.604c0.189,0.518,0.52,0.944,0.942,1.176
			c0.423,0.285,0.851,0.38,1.366,0.38h15.979v-1.932h-3.914c-0.753,0-1.361-0.286-1.744-0.805c-0.375-0.517-0.609-1.225-0.609-2.12
			c0-0.8,0.187-1.414,0.609-1.84c0.383-0.42,0.943-0.61,1.605-0.61c0.234,0,0.472,0.049,0.709,0.138
			c0.23,0.097,0.422,0.24,0.563,0.382c0.189,0.188,0.328,0.374,0.424,0.61c0.048,0.142,0.142,0.285,0.186,0.423h2.03
			c-0.097-0.423-0.188-0.846-0.33-1.225c-0.187-0.471-0.426-0.848-0.757-1.223c-0.329-0.329-0.704-0.613-1.174-0.802
			c-0.474-0.19-1.041-0.284-1.699-0.284s-1.272,0.094-1.789,0.284c-0.569,0.188-1.04,0.473-1.416,0.848
			c-0.376,0.377-0.706,0.848-0.896,1.368c-0.188,0.561-0.329,1.13-0.329,1.835c0,0.284,0.047,0.567,0.097,0.853
			c0.089,0.279,0.187,0.562,0.28,0.799c0.092,0.282,0.235,0.519,0.378,0.705c0.142,0.191,0.284,0.377,0.375,0.52l0.096,0.048h-8.577
			c-0.238,0-0.472-0.048-0.663-0.096c-0.188-0.095-0.377-0.188-0.563-0.329c-0.188-0.143-0.284-0.375-0.379-0.613
			c-0.093-0.282-0.139-0.611-0.139-1.034c0-0.757-0.096-1.463-0.333-2.029c-0.234-0.568-0.564-1.083-0.941-1.458
			c-0.423-0.381-0.896-0.663-1.465-0.854c-0.561-0.188-1.173-0.28-1.833-0.28c-0.663,0-1.321,0.093-1.886,0.28
			c-0.569,0.19-1.04,0.472-1.464,0.854c-0.423,0.375-0.753,0.891-0.939,1.458c-0.238,0.566-0.332,1.272-0.332,2.029
			c0,0.423-0.049,0.751-0.141,1.034c-0.097,0.284-0.239,0.47-0.38,0.613c-0.188,0.141-0.375,0.283-0.563,0.329
			c-0.188,0.096-0.427,0.096-0.661,0.096h-11.359V50.516h-2.121v12.209h13.528c0.518,0,0.942-0.142,1.367-0.374
			c0.423-0.286,0.706-0.664,0.942-1.184c0.378,0.711,0.944,1.227,1.649,1.603C203.216,63.197,204.065,63.337,204.961,63.383z
			 M205.055,61.546c-0.803,0-1.416-0.282-1.839-0.802c-0.423-0.52-0.608-1.178-0.608-1.978c0-0.848,0.186-1.509,0.608-1.981
			c0.423-0.519,1.036-0.752,1.839-0.752c0.8,0,1.413,0.282,1.84,0.752c0.423,0.52,0.614,1.178,0.614,2.026
			c0,0.853-0.191,1.511-0.614,1.981C206.468,61.311,205.854,61.546,205.055,61.546z M205.384,69.327
			c0.191-0.334,0.377-0.664,0.471-0.994c0.143-0.378,0.19-0.706,0.19-0.99c0-0.374-0.048-0.705-0.19-1.035
			c-0.142-0.33-0.329-0.567-0.562-0.804c-0.238-0.235-0.521-0.422-0.896-0.52c-0.331-0.139-0.758-0.187-1.181-0.187
			c-0.328,0-0.608,0.048-0.942,0.187c-0.282,0.098-0.566,0.284-0.85,0.52c-0.232,0.236-0.47,0.521-0.659,0.851
			c-0.187,0.283-0.283,0.614-0.375,0.988h1.364c0.143-0.33,0.334-0.613,0.567-0.845c0.286-0.241,0.566-0.38,0.895-0.38
			c0.473,0,0.802,0.139,1.036,0.38c0.236,0.279,0.379,0.563,0.379,0.893c0,0.143-0.048,0.379-0.143,0.613
			c-0.092,0.237-0.236,0.424-0.329,0.612l-3.866,4.998v1.13h5.562v-1.321h-3.629L205.384,69.327z M227.164,73.094
			c0.141-0.329,0.232-0.752,0.232-1.177V67.58c0-0.469-0.092-0.851-0.232-1.226c-0.143-0.329-0.379-0.659-0.612-0.898
			c-0.238-0.23-0.566-0.422-0.897-0.517c-0.331-0.142-0.705-0.186-1.036-0.186c-0.381,0-0.71,0.044-1.086,0.186
			c-0.329,0.143-0.612,0.286-0.896,0.517c-0.232,0.239-0.472,0.521-0.613,0.898c-0.139,0.33-0.23,0.757-0.23,1.226v4.337
			c0,0.47,0.092,0.848,0.23,1.177c0.142,0.379,0.381,0.663,0.613,0.896c0.238,0.238,0.567,0.426,0.896,0.521
			c0.331,0.139,0.705,0.189,1.086,0.189c0.376,0,0.705-0.051,1.036-0.189c0.331-0.144,0.612-0.282,0.897-0.521
			C226.785,73.757,227.021,73.473,227.164,73.094z M225.654,66.498c0.283,0.279,0.425,0.701,0.425,1.176v4.148
			c0,0.473-0.142,0.849-0.425,1.134c-0.283,0.281-0.612,0.42-1.036,0.42c-0.426,0-0.801-0.139-1.086-0.42
			c-0.282-0.285-0.426-0.661-0.426-1.134v-4.148c0-0.475,0.144-0.847,0.426-1.176c0.285-0.286,0.614-0.473,1.086-0.473
			C225.042,66.07,225.371,66.212,225.654,66.498z M220.231,74.699v-1.557h0.803v-1.32h-0.803v-2.829h-1.315v2.829h-2.454
			l3.254-7.068h-1.413l-3.346,7.396v0.992h3.959v1.557H220.231z M212.973,73.094c0.143-0.329,0.238-0.752,0.238-1.177V67.58
			c0-0.469-0.096-0.851-0.238-1.226c-0.14-0.329-0.375-0.659-0.612-0.898c-0.232-0.23-0.562-0.422-0.893-0.517
			c-0.334-0.142-0.711-0.186-1.04-0.186c-0.375,0-0.704,0.044-1.084,0.186c-0.329,0.143-0.611,0.286-0.895,0.517
			c-0.236,0.239-0.474,0.521-0.612,0.898c-0.14,0.33-0.238,0.757-0.238,1.226v4.337c0,0.47,0.099,0.848,0.238,1.177
			c0.139,0.379,0.376,0.663,0.612,0.896c0.235,0.238,0.565,0.426,0.895,0.521c0.327,0.139,0.709,0.189,1.084,0.189
			c0.377,0,0.706-0.051,1.04-0.189c0.331-0.144,0.609-0.282,0.893-0.521C212.644,73.757,212.833,73.473,212.973,73.094z
			 M211.468,66.498c0.279,0.279,0.421,0.701,0.421,1.176v4.148c0,0.473-0.142,0.849-0.421,1.134c-0.283,0.281-0.612,0.42-1.04,0.42
			c-0.423,0-0.8-0.139-1.084-0.42c-0.281-0.285-0.425-0.661-0.425-1.134v-4.148c0-0.475,0.144-0.847,0.425-1.176
			c0.284-0.286,0.613-0.473,1.084-0.473C210.855,66.07,211.229,66.212,211.468,66.498z M239.088,51.317l-0.801-0.802l-0.801,0.802
			l0.801,0.8L239.088,51.317z M237.486,51.317l-0.801-0.802l-0.8,0.802l0.8,0.8L237.486,51.317z M247.104,66.541l-0.801-0.801
			l-0.803,0.801l0.803,0.802L247.104,66.541z M245.5,66.541l-0.803-0.801l-0.801,0.801l0.801,0.802L245.5,66.541z"/>
	</g>
	<g>
		<path fill="#008FB7" d="M53.563,48.503L53.563,48.503c0-0.157,0.049-0.312,0.154-0.361c0.103-0.107,0.208-0.107,0.31-0.107
			c0.105,0,0.207,0.055,0.31,0.157c0.103,0.107,0.103,0.204,0.103,0.414v0.102c0,0.055,0,0.157-0.049,0.264
			c0,0.097-0.054,0.154-0.105,0.206c-0.206-0.052-0.36-0.108-0.518-0.206C53.611,48.813,53.563,48.707,53.563,48.503z M53.25,48.503
			L53.25,48.503c0,0.102,0,0.204,0.053,0.311c0.052,0.102,0.154,0.208,0.207,0.254c0.102,0.057,0.154,0.157,0.257,0.21
			c0.105,0.055,0.207,0.103,0.259,0.103c-0.102,0.157-0.259,0.314-0.463,0.415c-0.207,0.103-0.364,0.154-0.571,0.206v0.31
			c0.207,0,0.415-0.052,0.62-0.153c0.208-0.103,0.362-0.209,0.52-0.363c0.153-0.156,0.258-0.31,0.361-0.518
			c0.102-0.21,0.154-0.414,0.154-0.571c0-0.312-0.052-0.516-0.208-0.672c-0.154-0.152-0.308-0.204-0.514-0.204
			c-0.208,0-0.362,0.052-0.519,0.204C53.355,48.035,53.25,48.243,53.25,48.503z M57.075,52.379c0.364,0.363,0.517,0.983,0.517,1.706
			c0,0.776-0.152,1.347-0.517,1.758c-0.361,0.413-0.827,0.623-1.395,0.623c-0.567,0-1.035-0.209-1.396-0.623
			c-0.36-0.411-0.518-0.982-0.518-1.758c0-0.771,0.158-1.343,0.518-1.706c0.362-0.361,0.829-0.567,1.396-0.567
			C56.249,51.812,56.714,52.018,57.075,52.379z M52.89,54.084L52.89,54.084c0.049,0.52,0.102,0.985,0.309,1.347
			c0.157,0.411,0.413,0.722,0.673,0.981c-0.362,0-0.673,0.052-0.982,0.155c-0.259,0.104-0.519,0.258-0.674,0.415
			c-0.154,0.156-0.311,0.362-0.413,0.616c-0.103,0.262-0.154,0.469-0.154,0.726v1.704h0.722v-1.704c0-0.359,0.157-0.668,0.416-0.878
			c0.257-0.208,0.671-0.308,1.239-0.308h1.602c0.467,0,0.828-0.053,1.191-0.21c0.362-0.155,0.621-0.361,0.878-0.619
			c0.26-0.258,0.414-0.567,0.519-0.984c0.103-0.36,0.154-0.772,0.154-1.241c0-0.462-0.052-0.875-0.208-1.239
			c-0.104-0.361-0.311-0.671-0.514-0.985c-0.259-0.255-0.52-0.459-0.883-0.616c-0.362-0.155-0.721-0.209-1.187-0.209
			c-0.465,0-0.828,0.054-1.189,0.209c-0.363,0.152-0.623,0.361-0.879,0.616c-0.259,0.263-0.414,0.57-0.519,0.985
			C52.939,53.209,52.89,53.622,52.89,54.084z M65.605,56.413c-0.41,0-0.775-0.157-1.034-0.414c-0.258-0.256-0.41-0.673-0.41-1.139
			v-0.256c0-0.569-0.056-1.035-0.21-1.447c-0.154-0.416-0.359-0.779-0.618-1.034c-0.259-0.263-0.568-0.468-0.933-0.625
			c-0.36-0.153-0.773-0.204-1.188-0.204h-0.827v0.672h1.035c0.361,0,0.722,0.051,0.98,0.208c0.26,0.153,0.467,0.31,0.621,0.567
			c0.154,0.259,0.258,0.514,0.361,0.828c0.053,0.311,0.104,0.623,0.104,0.983v1.859H59.87v0.673h3.979
			c0.102-0.157,0.207-0.313,0.256-0.464c0.056-0.157,0.056-0.261,0.105-0.367c0.051,0.105,0.103,0.26,0.205,0.313
			c0.105,0.104,0.26,0.206,0.362,0.258c0.156,0.05,0.313,0.157,0.466,0.157c0.155,0.051,0.26,0.051,0.415,0.051h18.767
			c0.361,0,0.722-0.051,1.031-0.261c0.313-0.151,0.519-0.464,0.726-0.878c0.052,0.156,0.156,0.308,0.259,0.466
			c0.102,0.155,0.259,0.261,0.413,0.36c0.155,0.105,0.361,0.155,0.516,0.208c0.208,0.054,0.414,0.054,0.62,0.054h12.356v-5.22H99.47
			v4.547H87.887c-0.257,0-0.464-0.054-0.671-0.157c-0.206-0.102-0.361-0.258-0.516-0.466c-0.157-0.206-0.259-0.411-0.312-0.617
			c-0.05-0.261-0.104-0.465-0.104-0.726v-2.582h-0.773v2.995c0,0.519-0.104,0.93-0.311,1.192c-0.208,0.253-0.518,0.36-0.882,0.36
			H74.294c0.256-0.258,0.464-0.567,0.671-0.984c0.152-0.411,0.259-0.826,0.259-1.342c0-0.464-0.054-0.879-0.208-1.242
			c-0.104-0.363-0.31-0.672-0.517-0.979c-0.259-0.265-0.518-0.468-0.88-0.626c-0.363-0.153-0.724-0.204-1.188-0.204
			s-0.826,0.051-1.188,0.204c-0.362,0.158-0.621,0.361-0.882,0.626c-0.258,0.255-0.412,0.565-0.514,0.979
			c-0.105,0.363-0.207,0.778-0.207,1.242c0,0.516,0.102,0.931,0.255,1.342c0.155,0.417,0.416,0.726,0.675,0.984h-4.965V56.413z
			 M73.879,52.379c0.361,0.363,0.517,0.983,0.517,1.706c0,0.776-0.155,1.347-0.517,1.758c-0.364,0.413-0.827,0.623-1.397,0.623
			c-0.568,0-1.032-0.209-1.396-0.623c-0.362-0.411-0.516-0.982-0.516-1.758c0-0.771,0.153-1.343,0.516-1.706
			c0.363-0.361,0.827-0.567,1.396-0.567C73.052,51.812,73.515,52.018,73.879,52.379z M71.553,47.729l-0.517,0.515l0.517,0.519
			l0.518-0.519L71.553,47.729z M73.309,47.729l-0.515,0.515l0.515,0.519l0.52-0.519L73.309,47.729z M84.993,47.729l-0.516,0.515
			l0.516,0.519l0.519-0.519L84.993,47.729z M86.75,47.729l-0.516,0.515l0.516,0.519l0.519-0.519L86.75,47.729z M99.831,47.729
			l-0.516,0.515l0.516,0.519l0.516-0.519L99.831,47.729z M9.825,55.379L9.825,55.379c-0.416,0-0.725-0.103-0.932-0.309
			c-0.207-0.209-0.311-0.517-0.311-0.934c0-0.461,0.104-0.774,0.311-1.032c0.207-0.259,0.516-0.363,0.982-0.363h1.188v1.343
			c0,0.26-0.052,0.469-0.102,0.625c-0.053,0.151-0.158,0.308-0.26,0.41c-0.103,0.107-0.259,0.207-0.414,0.26
			C10.134,55.379,9.978,55.379,9.825,55.379z M13.753,55.687c-0.361,0-0.62-0.1-0.775-0.256c-0.155-0.205-0.208-0.517-0.208-0.984
			v-3.102H9.928c-0.519,0-0.93,0.057-1.293,0.208c-0.362,0.154-0.67,0.361-0.93,0.622c-0.259,0.256-0.415,0.567-0.569,0.93
			c-0.104,0.361-0.207,0.722-0.207,1.137s0.05,0.776,0.207,1.084c0.154,0.313,0.362,0.569,0.619,0.827
			c0.259,0.208,0.57,0.415,0.88,0.52c0.363,0.101,0.724,0.204,1.086,0.204c0.413,0,0.774-0.103,1.083-0.254
			c0.312-0.157,0.57-0.419,0.777-0.673c0.154,0.412,0.362,0.723,0.673,0.927c0.309,0.262,0.67,0.362,1.083,0.362h23.059
			c0.155,0,0.259,0,0.466-0.051c0.154,0,0.361-0.048,0.517-0.153c0.206-0.051,0.361-0.158,0.567-0.261
			c0.21-0.101,0.363-0.258,0.466-0.413c0.103,0.104,0.208,0.207,0.313,0.312c0.102,0.101,0.256,0.204,0.361,0.256
			c0.154,0.054,0.256,0.157,0.465,0.21c0.153,0.048,0.31,0.048,0.464,0.048h0.413c0.052,0,0.052,0,0.103,0l0,0h3.825v-5.22H42.6
			v3.776h-1.963c-0.05,0-0.05,0-0.104,0h-0.516c-0.102,0-0.259,0-0.361-0.056c-0.103-0.048-0.26-0.1-0.313-0.206
			c-0.102-0.102-0.207-0.205-0.256-0.362c-0.053-0.154-0.105-0.311-0.105-0.515v-2.587h-1.757v2.843c0,0.209,0,0.366-0.105,0.465
			c-0.049,0.105-0.154,0.208-0.207,0.313c-0.102,0.048-0.207,0.104-0.257,0.153c-0.104,0-0.209,0.051-0.259,0.051H24.712v-0.051
			c0.207-0.153,0.361-0.413,0.466-0.672c0.154-0.259,0.207-0.566,0.207-0.829c0-0.516-0.104-0.928-0.259-1.341
			c-0.155-0.361-0.415-0.722-0.724-0.982c-0.31-0.26-0.624-0.469-1.034-0.565c-0.414-0.107-0.828-0.209-1.293-0.209
			c-0.467,0-0.877,0.052-1.293,0.209c-0.411,0.152-0.723,0.306-1.034,0.565c-0.257,0.26-0.516,0.569-0.671,0.928
			c-0.156,0.361-0.259,0.78-0.259,1.297c0,0.254,0.053,0.565,0.207,0.825c0.154,0.259,0.312,0.517,0.466,0.67v0.056L13.753,55.687z
			 M22.024,55.743L22.024,55.743c-0.464,0-0.825-0.155-1.034-0.467c-0.256-0.311-0.361-0.723-0.361-1.191
			c0-0.258,0-0.462,0.105-0.619c0.049-0.209,0.154-0.361,0.256-0.516c0.104-0.152,0.259-0.26,0.465-0.361
			c0.154-0.103,0.362-0.103,0.621-0.103s0.465,0.051,0.62,0.155c0.155,0.102,0.312,0.206,0.466,0.361
			c0.105,0.157,0.207,0.312,0.259,0.519c0.05,0.204,0.102,0.411,0.102,0.673c0,0.464-0.102,0.877-0.361,1.187
			C22.904,55.587,22.542,55.743,22.024,55.743z M43.53,58.378l-1.033,1.033l1.033,1.036l1.034-1.036L43.53,58.378z M36.707,49.068
			l-1.035,1.035l1.035,1.034l1.034-1.034L36.707,49.068z M39.5,49.068l-1.033,1.035l1.033,1.034l1.033-1.034L39.5,49.068z
			 M20.525,47.729l-1.034,1.033l1.034,1.034l1.034-1.034L20.525,47.729z M23.317,47.729l-1.034,1.033l1.034,1.034l1.035-1.034
			L23.317,47.729z M38.102,47.729l-1.031,1.033l1.031,1.034l1.034-1.034L38.102,47.729z M9.15,47.729l-1.035,1.033l1.035,1.034
			l1.034-1.034L9.15,47.729z M11.944,47.729l-1.035,1.033l1.035,1.034l1.034-1.034L11.944,47.729z"/>
		<path fill="#008FB7" d="M32.882,62.667l-0.726,0.729l0.726,0.718l0.724-0.718L32.882,62.667z M18.044,72.334l-1.034,1.034
			l1.034,1.035l1.034-1.035L18.044,72.334z M63.176,72.334l-1.034,1.034l1.034,1.035l1.035-1.035L63.176,72.334z M15.512,62.667
			l-3.621,4.498l-3.618-4.498h-0.93v7.344H8.17v-6.153l3.669,4.549h0.052l3.671-4.549v6.153h0.828v-7.344H15.512z M21.042,69.386
			c-1.498,0-2.584-0.719-2.584-2.221c0-1.496,1.086-2.277,2.584-2.277c1.5,0,2.586,0.729,2.586,2.277
			C23.678,68.615,22.542,69.386,21.042,69.386z M21.042,70.216c2.171,0,3.415-1.238,3.415-3.051c0-1.859-1.244-3.103-3.415-3.103
			c-2.17,0-3.412,1.243-3.412,3.103C17.63,68.978,18.872,70.216,21.042,70.216z M31.744,64.272h-0.931l-2.482,4.961l-2.48-4.961
			h-0.984l2.949,5.79h0.932L31.744,64.272z M35.725,70.011v-3.568c0.516-1.036,1.395-1.555,2.481-1.555
			c1.241,0,1.862,0.729,1.862,1.972v3.151h0.828v-3.207c0-1.551-0.828-2.741-2.534-2.741c-1.189,0-2.121,0.571-2.637,1.451v-1.241
			h-0.88v5.79h0.88V70.011z M45.24,69.386c-1.606,0-2.483-0.824-2.483-2.221c0-1.448,0.877-2.277,2.483-2.277
			c1.083,0,1.962,0.365,2.531,1.346v1.757C47.202,69.024,46.323,69.386,45.24,69.386z M48.648,64.272h-0.828v1.085
			c-0.516-0.724-1.498-1.295-2.791-1.295c-1.911,0-3.1,1.295-3.1,3.103c0,1.813,1.188,3.051,3.1,3.051
			c1.139,0,2.223-0.565,2.791-1.345v0.57c0,1.396-0.93,2.069-2.634,2.069c-0.932,0-1.707-0.31-2.275-0.622l-0.415,0.622
			c0.622,0.462,1.708,0.823,2.743,0.823c1.86,0,3.359-0.928,3.359-2.996v-5.065H48.648z M58.577,63.492v-0.825h-6.876v7.344h0.827
			v-3.151h5.12v-0.831h-5.12v-2.536H58.577z M62.867,69.338c-1.501,0-2.587-0.723-2.587-2.226c0-1.496,1.086-2.273,2.587-2.273
			c1.498,0,2.584,0.722,2.584,2.273C65.451,68.615,64.313,69.338,62.867,69.338z M62.867,70.166c2.17,0,3.464-1.243,3.464-3.054
			c0-1.859-1.24-3.103-3.464-3.103c-2.17,0-3.414,1.243-3.414,3.103C59.403,68.923,60.645,70.166,62.867,70.166z M67.986,69.957
			v-3.363c0.41-1.135,1.497-1.755,2.791-1.755V64.01c-1.241,0-2.325,0.572-2.791,1.606v-1.397h-0.828v5.792h0.828V69.957z
			 M80.288,64.219l-1.704,4.806l-1.758-4.806h-0.827l-1.759,4.806l-1.704-4.806h-0.882l2.068,5.792h0.879l1.81-4.967l1.757,4.967
			h0.88l2.067-5.792H80.288z M87.318,68.304c-0.464,0.878-1.497,1.238-2.429,1.238c-0.828,0-2.066-0.253-2.066-1.344
			c0-1.086,1.238-1.339,2.066-1.339c0.932,0,1.965,0.306,2.429,1.238V68.304z M85.201,64.114c-0.983,0-2.069,0.314-2.688,0.725
			l0.412,0.675c0.62-0.418,1.293-0.675,2.17-0.675c1.5,0,2.275,0.675,2.275,2.07v0.466c-0.412-0.624-1.29-1.142-2.531-1.142
			c-1.188,0-2.842,0.469-2.842,2.022c0,1.492,1.653,2.011,2.842,2.011c1.189,0,2.068-0.519,2.531-1.134l0,0
			c0,0.309,0.053,0.615,0.208,0.93h0.879c-0.205-0.363-0.257-0.677-0.257-1.14v-2.063C88.146,64.995,87.01,64.114,85.201,64.114z
			 M90.112,69.957v-3.363c0.414-1.135,1.498-1.755,2.791-1.755V64.01c-1.241,0-2.327,0.572-2.791,1.606v-1.397h-0.827v5.792h0.827
			V69.957z M96.78,69.386c-1.602,0-2.482-0.824-2.482-2.221c0-1.448,0.881-2.277,2.482-2.277c1.086,0,1.966,0.365,2.535,1.346v1.757
			C98.746,69.024,97.866,69.386,96.78,69.386z M96.572,64.063c-1.911,0-3.102,1.295-3.102,3.103c0,1.813,1.19,3.051,3.102,3.051
			c1.241,0,2.224-0.565,2.795-1.345v1.191h0.825v-7.704h-0.825v3.101C98.849,64.634,97.866,64.063,96.572,64.063z M15.253,74.665
			l-1.294,3.875l-1.343-3.875h-1.396L9.875,78.54l-1.293-3.875H7.084l1.964,5.528h1.498l1.399-4.187l1.395,4.134h1.498l1.966-5.476
			H15.253z M18.872,74.665h-1.603v5.476h1.603V74.665z M23.835,78.745c-0.311,0.155-0.622,0.312-1.034,0.312
			c-0.567,0-0.983-0.312-0.983-0.829v-2.375h2.276v-1.139h-2.276v-1.293h-1.603v1.293H19.18v1.139h1.035v2.688
			c0,1.24,0.933,1.863,2.121,1.863c0.621,0,1.343-0.21,1.81-0.518L23.835,78.745z M28.538,74.51c-1.084,0-1.964,0.411-2.43,1.085
			v-0.832v-1.961h-1.602v1.912v5.479h1.602v-3.308c0.466-0.777,1.139-1.19,1.966-1.19c0.93,0,1.396,0.464,1.396,1.398v3.1h1.603
			V76.99C31.072,75.491,30.192,74.51,28.538,74.51z M38.466,79.008c-1.655,0-2.742-0.78-2.742-2.331
			c0-1.552,1.086-2.325,2.742-2.325c1.033,0,1.806,0.362,2.272,1.14l1.447-0.729c-0.621-0.927-1.964-1.703-3.72-1.703
			c-2.689,0-4.396,1.344-4.396,3.617c0,2.331,1.707,3.619,4.291,3.619c1.809,0,3.154-0.776,3.825-1.707l-1.447-0.722
			C40.222,78.645,39.5,79.008,38.466,79.008z M45.961,79.057c-1.139,0-1.965-0.566-1.965-1.654c0-1.138,0.826-1.655,1.965-1.655
			c1.139,0,2.017,0.518,2.017,1.655S47.15,79.057,45.961,79.057z M45.961,80.35c2.118,0,3.464-1.189,3.464-2.947
			c0-1.808-1.346-2.945-3.464-2.945c-2.119,0-3.464,1.138-3.464,2.945C42.497,79.211,43.843,80.35,45.961,80.35z M51.753,80.141
			v-3.309c0.462-0.771,1.136-1.189,1.963-1.189c0.93,0,1.397,0.466,1.397,1.396v3.103h1.601v-3.202c0-1.447-0.879-2.429-2.531-2.429
			c-1.087,0-1.968,0.411-2.43,1.085v-0.985h-1.605v5.483h1.605V80.141z M59.61,74.352c0-0.516,0.41-0.722,0.982-0.722
			c0.359,0,0.672,0.048,1.034,0.257l0.309-0.879c-0.465-0.206-1.136-0.363-1.705-0.363c-1.241,0-2.224,0.568-2.224,1.865v0.1h-1.034
			v1.138h1.034v4.346h1.604v-4.346h2.271v-1.138H59.61V74.352z M63.951,74.665H62.35v5.476h1.602V74.665z M67.986,79.057
			c-1.192,0-1.861-0.566-1.861-1.654c0-1.033,0.669-1.655,1.861-1.655c0.774,0,1.497,0.26,1.963,0.881v1.496
			C69.483,78.798,68.761,79.057,67.986,79.057z M67.622,74.457c-1.705,0-2.946,1.186-2.946,2.945c0,1.758,1.188,2.947,2.946,2.947
			c1.139,0,1.914-0.519,2.377-1.088v0.932h1.605v-7.392h-1.605v2.793C69.536,74.973,68.708,74.457,67.622,74.457z M75.737,75.643
			c0.985,0,1.604,0.364,1.811,1.189h-3.72C74.033,76.061,74.706,75.643,75.737,75.643z M73.723,77.815h5.22
			c0.056-0.104,0.056-0.153,0.056-0.36c0-1.964-1.346-2.945-3.31-2.945c-2.174,0-3.464,1.133-3.464,2.995
			c0,1.757,1.29,2.845,3.565,2.845c1.242,0,2.223-0.31,3-0.982l-0.827-0.877c-0.566,0.41-1.137,0.67-2.119,0.67
			C74.602,79.16,73.879,78.745,73.723,77.815z M81.169,80.141v-3.309c0.464-0.771,1.135-1.189,1.963-1.189
			c0.93,0,1.396,0.466,1.396,1.396v3.103h1.605v-3.202c0-1.447-0.88-2.429-2.535-2.429c-1.085,0-1.965,0.411-2.429,1.085v-0.985
			h-1.604v5.483h1.604V80.141z M93.316,78.851l-1.396-0.569c-0.361,0.619-0.982,0.879-1.654,0.879c-1.137,0-1.964-0.571-1.964-1.705
			c0-1.139,0.827-1.76,1.964-1.76c0.672,0,1.293,0.21,1.602,0.825l1.396-0.565c-0.462-0.778-1.497-1.396-3.05-1.396
			c-2.117,0-3.464,1.035-3.464,2.896c0,1.807,1.293,2.895,3.464,2.895C91.818,80.296,92.854,79.677,93.316,78.851z M96.884,75.643
			c0.982,0,1.604,0.364,1.809,1.189h-3.721C95.179,76.061,95.851,75.643,96.884,75.643z M94.919,77.815h5.223
			c0.051-0.104,0.051-0.153,0.051-0.36c0-1.964-1.344-2.945-3.309-2.945c-2.17,0-3.462,1.133-3.462,2.995
			c0,1.757,1.292,2.845,3.566,2.845c1.241,0,2.223-0.31,2.997-0.982l-0.826-0.877c-0.57,0.41-1.139,0.67-2.12,0.67
			C95.799,79.16,95.023,78.745,94.919,77.815z M32.467,64.272v5.843h0.828v-5.843H32.467z"/>
	</g>
	<rect x="108.361" y="47.729" fill="#008FB7" width="0.827" height="32.675"/>
</g>
</svg>
